<?xml version="1.0" standalone="no"?>
<!DOCTYPE svg PUBLIC "-//W3C//DTD SVG 1.1//EN" "http://www.w3.org/Graphics/SVG/1.1/DTD/svg11.dtd" >
<svg xmlns="http://www.w3.org/2000/svg">
<metadata></metadata>
<defs>
<font id="komusomedium" horiz-adv-x="2097" >
<font-face units-per-em="2048" ascent="1638" descent="-410" />
<missing-glyph horiz-adv-x="512" />
<glyph horiz-adv-x="0" />
<glyph horiz-adv-x="0" />
<glyph unicode="&#xd;" d="M238 1442l16 16q33 1 115 -24q434 37 1081 180q129 41 147 41q238 -109 238 -172q-35 -33 -57 -74q-111 -395 -213 -647q-20 -57 -74 -57q-33 0 -82 57q-131 0 -319 -41v-868q-8 -98 -41 -99q-94 0 -148 213q2 31 17 131q25 311 24 590q-137 -16 -344 -65q-2 -25 -33 -25 q-68 0 -139 139q-37 246 -123 590q-12 33 -33 57q-33 35 -32 58zM442 1352q72 -274 156 -623q137 18 344 57v287q-84 -16 -229 -57q-68 10 -107 49l8 16q195 41 328 82v172q-2 43 -57 82q-246 -41 -443 -65zM1073 1450l17 -25v-213q36 15 40 17q27 27 50 41q164 -23 163 -90 q0 -31 -65 -41q-90 -8 -188 -33v-287q143 20 270 66q33 0 74 -25q76 281 139 615l-8 41l-33 16q-207 -25 -459 -82z" />
<glyph d="M346 1081l2 21q6 18 35 30.5t57 12.5q20 -2 57.5 -7t49.5 -10q18 -6 26.5 -20t10.5 -49l155 51q154 47 316 68q186 27 338 26q78 31 123 31q57 0 104 -33t121 -125q37 -61 37 -112q0 -55 -86 -117q-49 -76 -90 -184q-20 -53 -21 -54l-41 -92l-43 -94q-20 -47 -20 -51 q2 0 10 -15q20 -33 20 -67q0 -37 -43 -72q-33 -18 -63 -18q-8 0 -101 10q-61 4 -92 8l-59 4q-86 0 -152 -18q-61 -16 -67 -17q-31 0 -49.5 27t-18.5 64v26v21q0 25 2 41q2 31 25 43q12 6 47 6q37 0 102 -6q88 -10 123 -11q23 0 43 4q66 10 86 41q16 27 51 158l11 41 q66 252 110 391q-37 14 -100 15q-86 0 -299 -35q-115 -18 -261.5 -51t-199.5 -54q14 -130 43 -241q35 -160 84 -281q47 -117 47 -170q0 -84 -86 -84q-96 0 -148.5 152.5t-72.5 324.5q-37 299 -70 340q-53 70 -53 131z" />
<glyph d="M418 1130l8 17q45 0 90 -33h172q309 12 647 66q70 14 140 41q246 -98 245 -156q0 -16 -49 -66q-119 -264 -213 -540q25 -25 25 -41q0 -25 -41 -25q-74 8 -238 8q-326 -23 -491 -57q-12 -49 -41 -49q-45 0 -123 147q-23 315 -90 598q-18 47 -25 58q-16 27 -16 32z M565 1057q27 -29 41 -58q45 -289 99 -573q274 45 581 82q18 0 49 -8q82 270 156 573q0 33 -33 33q-426 -43 -713 -82q-47 0 -180 33z" />
<glyph d="M305 1143q0 35 98 35q90 0 123 -31q47 -33 68 -66q61 111 94 179q27 70 90 69q45 0 85 -22.5t64.5 -55t28.5 -57.5q113 51 283 156l6 -9q-31 -38 -117 -157l-41 -56l-34 -47q-12 -156 -99 -155q-80 0 -110 55q-27 43 -96 213q-59 -135 -60 -217q0 -78 8 -119 q0 -43 -30 -67q-29 -29 -74 -29q-74 0 -141 104q-23 29 -74 168q-72 82 -72 109zM623 -14q0 20 47 49q473 305 809 1204q-59 66 -60 100q0 45 86 45q63 0 137 -86q78 -84 78 -157q0 -59 -45 -105q-184 -469 -483 -780q-143 -145 -295 -217q-152 -82 -227 -82q-47 0 -47 29z " />
<glyph d="M520 1339q0 23 29 38.5t61 15.5q41 0 82 -39q150 -143 150 -234q0 -51 -21 -141q-37 -221 -48 -360.5t-13 -317.5q272 78 659 379q135 115 271 264q31 41 51 41q27 0 26 -20q0 -20 -24 -80q-104 -287 -336 -494q-227 -184 -584 -352q-63 -88 -112 -88q-39 0 -76 42 t-60.5 97t-23.5 86q0 47 20 96q6 532 21 990q-72 55 -72 77z" />
<glyph d="M508 1210q0 23 28.5 38.5t61.5 15.5q41 0 82 -39q150 -143 149 -234q0 -51 -20 -141q-27 -133 -27 -156l-4 -39l-6 -59q-8 -147 -12 -295q272 78 659 379q135 115 271 264q31 41 51 41q27 0 26 -20q0 -20 -24 -80q-104 -287 -336 -494q-227 -184 -584 -352 q-63 -88 -112 -88q-39 0 -76 42t-60.5 97t-23.5 86q0 47 20 96q2 68 2 381q0 281 7 480q-72 55 -72 77z" />
<glyph d="M520 991q0 -18 72 -78l-10 -301q-6 -113 -11 -340q-20 -49 -20 -96q0 -31 23.5 -86t60.5 -97t76 -42q49 0 112 88q356 168 584 352q231 207 336 494q25 59 24 80q0 20 -26 20q-20 0 -51 -41q-135 -150 -271 -264q-387 -301 -659 -379q6 31 14 133q25 299 68 340 q12 10 12 27q0 25 -25 57q-43 57 -137 150q-43 37 -82 36q-31 2 -60.5 -14t-29.5 -39z" />
<glyph d="M430 307q0 18 35 35q455 293 688 600q-29 47 -29 78q0 47 54 47q59 0 100 -29q115 -109 115 -164q0 -53 -60 -112q-117 -104 -233 -191q53 -109 65.5 -180.5t12.5 -208.5q0 -203 -13 -266q-14 -70 -96 -70q-43 0 -82 36t-62.5 84t-23.5 79q0 39 45 98q20 184 21 349 q-147 -113 -283.5 -162t-212.5 -49q-41 0 -41 26z" />
<glyph d="M309 514q0 25 31 39q37 16 94 55q430 306 817 750q-23 68 -22 104q0 37 33 37q78 0 122 -35q115 -137 115 -186q0 -76 -106 -164q-92 -98 -269 -246q90 -143 90 -536q0 -283 -6 -332q-12 -102 -106 -102q-86 0 -127 67q-55 84 -55 144q0 39 49 120q27 272 26 490 q0 43 -12 51q-246 -205 -520 -268q-82 -16 -113 -17q-41 0 -41 29z" />
<glyph unicode="&#x9;" d="M152 367q0 51 43 51q29 0 67 -37l70 43q-41 141 -41 223q0 98 26 504q-51 135 -51 190q0 37 21 37q43 0 75 -51q55 41 297 117q53 39 91 39q37 0 89 -33t91 -77t39 -79q0 -47 -39 -104q-25 -180 -25 -254q0 -72 8 -266q0 -180 -24 -297q-47 -176 -141 -176q-66 0 -70 102 q-29 66 -55 139q-287 -281 -332 -280q-39 0 -88 73q-51 84 -51 136zM393 1296q57 -72 69.5 -107.5t12.5 -125.5v-76q135 61 187 62q14 0 45 -11v283q-170 -43 -195 -43q-37 0 -119 18zM461 721l71 139l-63 -12zM463 664q0 -117 14 -154l234 172v240l-47 -33 q-140 -147 -201 -225zM655 481q27 -24 60 -26v90zM825 35q0 45 43 145q23 117 54 205q12 -82 32 -127q186 322 187 1042q-74 78 -74 130q2 45 35 45q20 0 53 -39q80 68 432 133q68 27 109 26q37 0 93 -42t99 -97t43 -94q0 -45 -49 -100q-57 -279 -57 -455q0 -150 33 -457 q14 -123 14 -256q0 -88 -76 -209q-51 -74 -119 -73q-61 0 -88 94q-246 209 -372 520q121 -125 235 -180q63 -25 176 -45l-4 366q-35 -2 -102 -2q-154 0 -273 107q-70 -420 -205 -598q-94 -94 -170 -94q-49 0 -49 55zM1255 1370q78 -61 78 -149q0 -14 -10 -107q176 92 236 92 q29 0 75 -26l11 250q-267 -17 -390 -60zM1282 813q97 88 156 197l-131 -15zM1331 772q61 -23 152 -22q39 20 65 20q27 0 72 -12l6 282l-39 -14q-162 -164 -256 -254z" />
<glyph unicode="&#xa;" d="M276 1128q8 82 50 82q35 0 61 -45q39 -66 98 -106q92 84 181 117q104 35 292 65q0 139 -6 264q-100 74 -100 123q0 53 156 80q72 0 192 -102q45 -39 45 -80q0 -70 -45 -152q-14 -98 -14 -102q125 20 301 33q104 25 135 24q55 0 114.5 -33.5t99.5 -87t40 -106.5 q0 -57 -107 -72q-219 -111 -315 -149l19 -31q125 -45 124 -135q0 -94 -137 -94q-166 8 -299 8l4 -486q0 -184 -139 -391q-78 168 -78 303q0 145 10 551q-90 -23 -108 -28q-43 -12 -64 -13q-70 0 -86 97q8 78 62 88q117 27 205 61l-6 285q-287 -51 -422 -119l24 -45 q41 -135 92 -248q27 -68 27 -96q0 -84 -84 -84q-47 0 -143 102q-178 262 -179 522zM1159 889q193 104 316 254q-201 -4 -304 -15zM1319 813l98 6v41z" />
<glyph d="M238 1180l8 16q160 0 221 -82q238 39 500 74v295q-4 84 -33 123q-49 61 -49 114l16 17q162 0 262 -148q-12 -66 -16 -106l-8 -271l368 58q102 39 123 41q254 -80 254 -164q-47 -23 -74 -57q-78 -135 -180 -320q16 -27 17 -49q0 -25 -74 -25l-135 13l-45 4q-205 0 -263 -8 l-16 -500q-10 -176 -33 -328q-10 -66 -49 -65q-20 0 -49 73q-14 145 -16 320v475q-291 -35 -369 -66q0 -82 -33 -82q-61 0 -114 91q-68 233 -148 475q-51 51 -65 82zM492 1032q43 -180 90 -336q221 43 385 66v344q-250 -35 -475 -74zM1130 778l189 25q80 10 123 33 q45 -10 82 -25q47 158 82 344q0 25 -25 25q-225 -23 -442 -50z" />
<glyph d="M287 1286l8 17q237 59 483 196q49 31 99 74q246 -61 245 -164q0 -8 -139 -74q-240 -223 -434 -540q-123 -186 -123 -320q0 -242 442 -270q184 0 582 24q240 25 303 123q31 35 66 320h24q14 -215 74 -361q82 -63 82 -106q0 -57 -197 -99q-371 -57 -778 -57 q-680 53 -680 418q0 102 57 262q162 344 402 672l-369 -156q-88 0 -147 41z" />
<glyph d="M344 532l16 17q27 0 156 -33q121 10 254 25q57 172 98 336q0 59 -49 114l-41 -16q-2 -57 -41 -57q-37 0 -106 106q-39 150 -90 319q-43 82 -66 115l17 17q33 0 81 -17h107q227 25 541 82q55 14 106 41q197 -76 197 -123q0 -18 -58 -57q-72 -152 -131 -328 q-47 -90 -73 -90q-29 0 -99 57q-104 0 -254 -32q98 -82 107 -140q-98 -182 -172 -311q244 37 491 90q82 25 140 58q213 -98 213 -156q-23 -18 -58 -57q-100 -197 -180 -402q25 -18 25 -49q0 -25 -74 -25q-348 0 -688 -65q-2 -49 -41 -49q-59 0 -131 139q-57 207 -123 393 q-27 39 -41 49q-33 27 -33 49zM573 442l123 -417q252 45 557 114q41 0 82 -8q72 227 107 410q0 41 -41 41l-664 -123q-96 -14 -164 -17zM655 1384q70 -229 107 -344q240 53 368 90q35 -2 74 -24q53 158 90 328q0 41 -41 41l-182 -27q-248 -37 -416 -64z" />
<glyph d="M381 -29q0 23 29 45q80 76 149 162q113 141 199 371q-49 -20 -88 -21q-86 0 -158 68q-61 53 -61 96q0 25 30 25q33 0 60 -21q225 47 295 64q35 106 59 223q-63 57 -64 84q0 33 13 41q23 20 106 20q25 0 82 -34q92 -45 92 -115q0 -57 -51 -145l-10 -41q76 8 182 24 q51 29 86 29q59 0 131 -78q57 -70 58 -115q0 -33 -50 -92q-86 -311 -182 -461q-137 -199 -272 -198q-94 0 -94 96q0 31 2 47q-76 156 -105 227q-57 -86 -137 -160.5t-156.5 -117.5t-122.5 -43q-23 0 -22 20zM836 295q92 -92 211 -133q82 80 129 196q63 127 102 301 q-145 -10 -289 -41q-84 -203 -153 -323z" />
<glyph d="M297 37q0 25 31 49q313 272 483 723q-135 -43 -197 -43q-55 0 -127 68q-70 72 -69 106q0 33 33 33q29 0 71 -25q156 39 357 74q59 193 84 342q-37 43 -37 66q0 31 22.5 49t63.5 18q33 0 82 -32.5t84.5 -81t35.5 -91.5q0 -35 -86 -213l314 41q51 23 71 23q72 0 156 -109 q45 -63 45 -114q0 -57 -63 -129q-88 -301 -135 -414q-199 -426 -420 -426q-111 0 -111 158q-72 139 -104 305l8 6q106 -113 237 -191q76 45 197 312q106 264 125 417q-227 -23 -404 -75q-147 -406 -319 -609q-115 -129 -305 -235q-68 -31 -96 -31q-27 0 -27 29z" />
<glyph d="M457 307q0 41 30 41q37 0 70 -24q143 14 424 47q117 23 176 90q172 236 287 575q-215 -12 -600 -116q-74 -20 -129 -21q-43 0 -102.5 28.5t-103.5 69.5t-44 72q0 43 37 43q27 0 78 -27q422 90 884 127q61 25 107 25q45 0 131 -98q47 -66 47 -113q0 -63 -80 -143 q-125 -289 -274 -459q70 -25 99.5 -60.5t29.5 -97.5q0 -76 -115 -76q-113 6 -197 7q-119 0 -342 -41q-137 -39 -200 -39q-74 0 -166 104q-43 49 -47 86z" />
<glyph d="M489 307q0 41 31 41q37 0 70 -24q172 16 358 47q117 23 176 90q172 236 287 575q-219 -12 -534 -116q-74 -20 -129 -21q-43 0 -102.5 28.5t-103.5 69.5t-44 72q0 43 37 43q27 0 77 -27q422 90 820 127q61 25 106 25t131 -98q47 -66 47 -113q0 -63 -80 -143 q-125 -289 -274 -459q70 -25 99.5 -60.5t29.5 -97.5q0 -76 -115 -76q-115 6 -196 7q-119 0 -277 -41q-137 -39 -201 -39q-74 0 -165 104q-43 49 -48 86zM1485 1430q0 43 104 43q37 0 82 -27q29 139 139 139q66 1 117 -26q39 -33 39 -99q0 -51 -53 -51q-55 0 -146 72 q-16 -4 -16 -21q0 -47 29 -86q23 -39 22 -69q0 -55 -65 -56q-59 0 -107.5 33t-105.5 104q-39 20 -39 44z" />
<glyph d="M436 1149q0 35 33 35q28 -1 100 -19l559 97l160 26l135 23q96 49 133 49q27 0 54 -21q164 -133 164 -215q0 -74 -91 -114q-420 -733 -704 -897q-90 -55 -223 -105.5t-172 -50.5q-31 0 -31 29q0 25 33 43q166 117 315 260q236 236 559 858q-326 -45 -588 -133 q-115 -35 -163 -35q-84 0 -181 61q-51 35 -63 50q-29 23 -29 59z" />
<glyph d="M367 1235q0 39 57 41q74 0 149 -80q23 29 273 78q248 47 520 63q98 41 133 41q90 0 199 -139q35 -53 35 -106q0 -45 -72 -107q-209 -569 -334 -707q-150 -178 -334 -292q-193 -106 -252 -107q-45 0 -45 31q0 39 45 59q100 78 174 137q356 354 515 1043q-276 -14 -410 -64 q-125 -37 -189 -36q-47 0 -161 26q-14 2 -56 2q57 -209 58 -383q-4 -143 -25 -178q-31 -47 -84 -47q-74 0 -119 82q-33 74 -32 115q0 51 39 127q-6 203 -15 294q-70 84 -69 107z" />
<glyph d="M483 16l41 41q264 293 385 590q-61 -12 -92 -16l-129 -25q-80 12 -115 74l9 16q49 -8 90 -8q133 14 270 41q51 117 66 238q0 39 -9 49q-16 29 -16 41l8 16q106 -18 156 -123q-2 -14 -25 -49l-57 -156q96 18 205 33q29 6 73 25q131 -63 132 -98q0 -16 -25 -41 q-111 -340 -238 -615q-88 -156 -139 -155q-20 0 -41 57q-33 72 -98 131l8 16q-16 8 41 -16q51 -33 98 -33q23 0 49 49q121 246 222 574q0 49 -49 49l-263 -49q-197 -391 -458 -615l-90 -57z" />
<glyph d="M303 899q0 37 35 37l74 -14q283 37 571 116q6 98 6 193q0 53 -10 155q-86 47 -86 80q0 37 47 66q29 16 82 16q90 0 147 -35q90 -66 91 -102q0 -37 -35 -90l-11 -111q-6 -88 -14 -120l205 43q33 6 121 55q29 12 55 12q47 0 92 -31q80 -66 80 -120q0 -27 -31 -31 q-27 -4 -106 -8q-74 -4 -129 -19q-61 -18 -303 -80q127 -221 256 -399q96 -135 200 -246q49 -55 134 -139q61 -59 247 -178q49 -33 54 -43q-16 -16 -275 -17q-104 0 -125 5l-4 2q-6 0 -8 2q-8 0 -12 2q-12 2 -33 16q-31 20 -43 33q-23 23 -45 57q-152 231 -299 569 q-51 117 -70 142q-45 -154 -190 -336q-147 -184 -322.5 -314t-308.5 -151q-8 0 -16 4q-6 2 -7 6v6q2 8 27 31t53 41q211 145 338 305q238 340 244 561l-162 -36l-192 -43q-63 -14 -86 -15q-33 0 -41 2q-31 0 -56 17q-4 2 -43 22q-8 4 -36.5 18.5t-44 30t-15.5 33.5z" />
<glyph d="M289 0q10 -25 80 -25q72 0 221 99q88 57 241.5 197.5t243.5 263.5l178 -197q35 -43 99 -43q96 0 96 98t-66 207q-78 104 -141 145q143 203 240 318q59 59 59 92q0 96 -110 234q-31 35 -74 34q-94 0 -94 -41q0 -27 36 -116q-104 -219 -235 -402q-250 113 -342 113t-92 -49 q0 -27 24 -39q178 -96 287 -215q-141 -178 -453 -463l-69 -59q-66 -51 -84 -74q-12 -8 -30.5 -39t-14.5 -39z" />
<glyph d="M289 0q10 -25 80 -25q72 0 221 99q59 39 242.5 211t242.5 250l406 528q59 59 59 92q0 96 -110 234q-31 35 -74 34q-94 0 -94 -41q0 -27 36 -116q-168 -344 -358 -592q-39 -51 -86 -105q-76 -86 -182 -188q-86 -82 -144 -133l-41 -37l-69 -59q-66 -51 -84 -74 q-12 -8 -30.5 -39t-14.5 -39z" />
<glyph d="M131 -66q442 307 582 656q59 154 82 303q-170 -25 -426 -90q-74 25 -131 65l8 17q250 51 565 106q25 281 25 500q0 33 -33 90q-41 59 -41 82l8 16q270 -45 270 -131q0 -20 -16 -98q-25 -303 -41 -426q90 16 240 39l92 14l86 13q59 10 98 65q254 -51 254 -131 q0 -41 -57 -49q-354 0 -721 -49q-16 -98 -33 -156q651 -647 1147 -762v-16q-262 -66 -524 -66q-96 104 -312 393q-176 240 -327 386q-53 -145 -115 -254q-211 -348 -672 -533z" />
<glyph d="M711 834q0 16 14 16l35 -6q117 14 262 51q4 61 4 86q0 29 -6 72q-39 20 -39 34q0 18 23 31q12 6 34 6q41 0 70 -14q41 -29 41 -47t-14 -41q0 2 -5 -47l-8 -57l95 20q10 2 57 25q10 6 29 6q20 -2 46.5 -23.5t26.5 -46.5q0 -10 -14 -12q-20 -4 -47 -4q-41 -4 -62 -9 l-139 -36q66 -109 119 -181q49 -66 92 -108q57 -63 61 -64q23 -20 56 -43l59 -36q14 -10 25 -21q-8 -6 -146 -6q-49 0 -66.5 8t-39.5 43q-57 84 -111 201l-59 121q-20 -70 -87 -152t-148 -141.5t-142 -67.5q-10 0 -10 6q0 12 37 33q92 61 155 137q106 152 111 252l-74 -14 q-119 -27 -129 -27h-18q-14 0 -27 8l-18 11q-43 18 -43 37z" />
<glyph d="M47 1155q0 -33 59 -92l406 -528q72 -94 248 -254q180 -168 284.5 -237t174.5 -69t81 25q4 8 -14 39t-31 39q-18 18 -84 74l-71 59l-105 96q-90 82 -170 164q-115 119 -178 203q-190 248 -358 592q37 90 37 116q0 41 -95 41q-43 0 -73 -34q-111 -137 -111 -234z" />
<glyph d="M721 987q0 53 115 53q125 0 319 -118q217 -144 217 -320q0 -162 -78 -162q-49 0 -120 47q-72 10 -259 50q137 41 193 81q-74 119 -174 199q-109 80 -168 111q-45 25 -45 59z" />
<glyph d="M721 987q0 53 115 53q125 0 319 -118q217 -143 217 -320q0 -162 -78 -162q-63 0 -120 47q-36 25 -97 140q-70 121 -143 190q-109 80 -168 111q-45 25 -45 59z" />
<glyph unicode=" "  horiz-adv-x="512" />
<glyph unicode="&#x09;" horiz-adv-x="512" />
<glyph unicode="&#xa0;" horiz-adv-x="512" />
<glyph unicode="!" d="M334 1180q0 43 33 43q35 0 88 -21q323 98 704 254q53 55 115 55q37 0 79 -24.5t70.5 -61t28.5 -69.5q0 -80 -178 -164q-322 -236 -602 -625q-115 -170 -115 -225q0 -66 47 -96q106 -41 428 -41q221 0 600 94q80 238 80 434q0 53 -22 201q156 -252 231 -615 q66 -59 66 -129q0 -113 -236 -176q-242 -57 -424 -57q-393 0 -592 41q-342 86 -342 289q0 231 471 815q-205 -61 -254 -62q-63 0 -186 47q-90 49 -90 93z" />
<glyph unicode="&#x22;" d="M309 1391q0 45 37 45q29 0 43 -43q23 -49 76 -82q178 182 1053 245q86 35 114 35q84 0 189 -168q27 -41 26 -102q0 -43 -65 -115q-102 -354 -215 -501q-84 -90 -156 -91q-70 0 -68 80v49q-79 -22 -204 -45v-86v-67v-56v-43q4 -324 8 -477q0 -170 -107 -170q-80 0 -127 78 q-49 113 -49 172q0 53 74 146q18 244 23 462q-127 -27 -181 -26q-12 0 -43 12q-4 -72 -65 -72q-70 0 -160 148q-203 455 -203 672zM506 1272l51 -72l45 -133q47 18 88 18q33 0 279 72v105l-56 63q-123 -33 -178 -33q-61 0 -135 15q-37 0 -94 -35zM625 1010q34 -124 69 -222 l49 25q137 88 230 176q-135 -27 -223 -26q-25 0 -125 47zM862 791q55 6 109 18v84q-60 -49 -109 -102zM1108 1372q59 -55 59 -96q0 -23 -6 -57q55 23 103 22q127 -23 127 -100q0 -45 -70 -72q-115 -31 -176 -59l-8 -168l82 20q-6 48 -35 103q49 -29 114 -56q63 -25 93 -59 q152 225 178 559q-254 0 -461 -37z" />
<glyph unicode="#" d="M403 510q23 102 66 102q27 0 39 -32q39 -61 45 -70q268 129 909 188q43 20 70 21q39 0 94 -41t95 -97.5t40 -95.5q0 -57 -96 -98q-98 -104 -174 -164q66 -72 65 -129q0 -111 -116 -110q-217 18 -310 18q-137 -29 -192 -29q-72 0 -72 74q8 57 37 88t66 42t102 24 q172 43 377 352q-266 0 -500 -68q-117 -39 -184 -39q-88 0 -158 3l27 -41q123 -208 164 -433q0 -109 -70 -108q-102 0 -168 141q-156 393 -156 502zM506 1421q8 52 41 52q31 0 41 -23q31 -33 61 -53q260 100 713 147q61 31 94 31q43 0 92 -33t82 -82t33 -92q0 -57 -92 -86 q-102 -92 -195 -154q53 -47 54 -71q0 -68 -99 -96l-53 -9q-2 0 -64 -20q-6 -2 -24.5 -19.5t-28.5 -29.5l-35 -47l-49 -62q-37 -49 -104.5 -89t-124.5 -46q-35 0 -72 14q45 25 79 61t93 113q41 55 94 117q-82 -10 -108 -10q-25 0 -80 20q0 -86 -61 -86q-57 0 -121 64 q-61 90 -115 364q-51 90 -51 125zM692 1350q45 -45 74 -97q25 -57 76 -223q35 55 69 68l109 32q208 103 321 275q-53 4 -84 4q-33 0 -233 -43q-131 -29 -170 -29q-66 0 -162 13z" />
<glyph unicode="$" d="M518 1243q0 20 21 21l45 -9q186 25 342 66q4 74 4 109t-6 86q-51 27 -52 45q0 47 84 47q41 0 88.5 -27t47.5 -51q0 -23 -21 -51l-6 -60q0 -8 -8 -69l123 24q14 2 73 31q14 8 39 8q27 -2 62 -29.5t35 -56.5q0 -12 -19 -16l-63 -6q-51 -4 -78 -9q-33 -12 -182 -45 q39 -66 83 -127q82 -119 138 -178q53 -59 100 -102l33 -33q35 -33 147 -100q29 -18 33 -25q-16 -8 -174 -8q-70 0 -96.5 11t-57.5 54q-74 106 -143 250l-76 150q-29 -88 -116 -189.5t-192 -175t-185 -86.5q-8 0 -11 2l-4 4v4q4 12 49 39q125 82 203 172q143 188 146 314 q-250 -51 -265 -51h-24q-16 0 -33 10l-24 12q-6 2 -23.5 10.5t-27 16.5t-9.5 18zM582 541q0 25 22 24q18 0 27 -24q12 -27 45 -45q111 104 631 137q49 20 69 20q49 0 113 -94q16 -27 16 -57q0 -27 -39 -66q-61 -197 -129 -280q-49 -51 -94 -52q-41 0 -41 46v28 q-43 -12 -123 -26l6 -408q0 -94 -65 -94q-47 0 -76 43q-29 68 -29 96q0 29 43 82q10 133 15 258q-74 -14 -109 -14l-24 6q-2 -39 -41 -39q-43 0 -94 82q-123 256 -123 377zM700 473l31 -39l27 -76q30 11 53 11q18 0 166 41v57l-33 37q-74 -18 -106 -19q-39 0 -82 9 q-23 0 -56 -21zM772 326l41 -123l29 14q90 53 139 98q-80 -14 -135 -14q-16 0 -74 25zM913 205q41 4 66 10v47zM1061 530q37 -35 37 -55q0 -6 -4 -31q31 12 61 13q76 -12 76 -58q0 -23 -41 -39q-51 -12 -107 -34l-4 -93l49 11q-4 28 -22 57l70 -31q41 -16 55 -32 q92 129 106 313q-160 0 -276 -21z" />
<glyph unicode="%" d="M303 899q0 37 35 37l74 -14q283 37 571 116q6 98 6 193q0 53 -10 155q-86 47 -86 80q0 37 47 66q29 16 82 16q90 0 147 -35q90 -66 91 -102q0 -37 -35 -90l-11 -111q-6 -88 -14 -120l205 43q33 6 121 55q29 12 55 12q47 0 92 -31q80 -66 80 -120q0 -27 -31 -31 q-27 -4 -106 -8q-74 -4 -129 -19q-61 -18 -303 -80q127 -221 256 -399q96 -135 200 -246q49 -55 134 -139q61 -59 247 -178q49 -33 54 -43q-16 -16 -275 -17q-104 0 -125 5l-4 2q-6 0 -8 2q-8 0 -12 2q-12 2 -33 16q-31 20 -43 33q-23 23 -45 57q-152 231 -299 569 q-51 117 -70 142q-45 -154 -190 -336q-147 -184 -322.5 -314t-308.5 -151q-8 0 -16 4q-6 2 -7 6v6q2 8 27 31t53 41q211 145 338 305q238 340 244 561l-162 -36l-192 -43q-63 -14 -86 -15q-33 0 -41 2q-31 0 -56 17q-4 2 -43 22q-8 4 -36.5 18.5t-44 30t-15.5 33.5z" />
<glyph unicode="0" d="M127 737q0 41 37 41q29 0 80 -24q317 121 712 196l-6 447q-94 106 -94 145q0 41 76 55q84 0 174 -63q135 -100 135 -160q0 -27 -39 -102q-16 -123 -20 -287q166 16 350 25l-199 196q109 -63 320 -155q225 -59 225 -168q0 -78 -104 -78q-33 0 -150 8l-143 8 q-121 0 -295 -16q4 -340 4 -475q-27 -233 -174 -500q-66 209 -66 328q0 379 2 616q-201 -66 -352 -145q-141 -57 -176 -58q-90 0 -205 60q-92 59 -92 106z" />
<glyph unicode="1" d="M297 825q0 31 27 31q33 0 112 -33q797 144 1139 144q115 0 205 -56q82 -57 82 -141q0 -80 -80 -80q-37 0 -78 6q-139 -86 -410 -123q150 90 211 152q-348 -8 -665 -100q-154 -41 -209 -41q-106 0 -266 110q-68 66 -68 131z" />
<glyph unicode="2" d="M227 328q0 43 35 43q23 0 68 -23q567 119 1181 162q59 51 103 51q31 0 100.5 -28.5t124.5 -70.5t55 -81q0 -106 -106 -107q-90 0 -229 13q-209 6 -371 6q-168 0 -426 -74q-168 -61 -211 -61q-82 0 -221 80q-102 53 -103 90zM578 1229q0 35 45 35q18 0 61 -25 q242 31 453 96q133 49 168 49q49 0 135 -36q80 -45 80 -93q0 -49 -131 -88q-305 -197 -746 -329q184 113 324 239q-61 -6 -93 -6q-111 0 -241 88q-55 41 -55 70z" />
<glyph unicode="3" d="M195 166q0 47 34 47q35 0 78 -55q634 121 1209 164q106 82 155 81q37 0 129 -45q156 -98 156 -194q0 -113 -137 -113q-500 61 -637 62q-184 0 -477 -101q-193 -66 -242 -65q-268 61 -268 219zM532 1290q0 27 29 37l92 -16q222 35 443 98q174 72 223 72q209 -39 209 -115 t-94 -106l-195 -64q-408 -172 -612 -207q139 76 291 178l-123 -10q-80 0 -181 51q-82 45 -82 82zM567 752q0 39 33 39l107 -15q187 23 337 62q121 70 195 69q217 -45 217 -141q0 -66 -145 -96q-489 -223 -676 -258q178 90 332 204h-185q-76 0 -131 37q-84 68 -84 99z" />
<glyph unicode="4" d="M166 1038q0 49 39 49q20 0 55 -71q47 -72 111 -117q176 207 1169 295q86 29 148 29q72 0 180 -97q94 -92 94 -153q-2 -57 -57 -103q-96 -340 -207 -524q-80 -139 -203 -139q-53 0 -74 67l-295 11q-90 0 -252 -35q-127 -35 -172 -35q-39 0 -100 49l6 -45q-7 -69 -73 -69 q-117 0 -222 223q-145 336 -147 665zM434 815l129 -446q20 -17 45 -17l258 51q-49 0 -94 45.5t-74.5 115t-35.5 138.5q0 47 32 177q-45 -14 -178 -33q-33 -2 -82 -31zM791 907l65 -190l156 213l-92 -322v-86q0 -70 -46 -116l62 14q166 266 254 524l-53 57q-190 -45 -346 -94 zM1057 432l190 14q110 52 139 52q39 0 80 -37q129 297 183 581q-190 0 -357 -14q133 -109 133 -166q0 -94 -368 -430z" />
<glyph unicode="5" d="M150 147q0 39 28 39q23 0 68 -36q254 53 381 77q-59 84 -105 185q66 -63 135 -95q102 209 150 316q-125 -63 -154 -66l-78 -6q-92 -29 -102 -29q-18 0 -18 19q0 66 102 133q119 53 338 150l37 69q29 53 41 80q66 123 96 184q-80 -23 -117 -22q-45 0 -119.5 32.5 t-133 76.5t-58.5 71q0 33 39 33q27 0 88 -23q180 35 360 115q96 82 144 82q43 0 90 -27.5t79 -66.5t32 -72q0 -51 -93 -100q-168 -186 -258 -381l99 18q127 45 163 45q33 0 89.5 -40t99.5 -94t43 -91q0 -66 -98 -102q-207 -203 -373 -314h448q78 90 117 90q49 0 113.5 -32.5 t110.5 -83t46 -97.5q0 -106 -100 -106q-113 0 -311 33q-215 31 -393 30q-395 0 -682 -135q-76 -31 -119 -31q-47 0 -137 54q-88 61 -88 118zM793 262l90 10q264 193 383 469q-127 0 -236 -26q-131 -242 -237 -453z" />
<glyph unicode="6" d="M154 868q0 45 32 45q29 0 88 -41q479 117 1242 234q98 100 129 100q61 0 174 -49q111 -55 110 -162q0 -98 -155 -98q-248 6 -392 6q-311 0 -690 -160q-164 -76 -239 -75q-78 0 -209 75q-90 66 -90 125zM385 322q25 193 94 192q25 0 33 -70q55 -59 131 -120 q176 113 375 266q-141 -236 -223 -414q8 -18 8 -55q-14 -104 -127 -105q-127 0 -260 189q-31 63 -31 117zM713 1092q180 148 254 211q-43 55 -119 96q-53 23 -53 59q0 72 192 80q57 0 122 -34t109 -92t44 -132q-20 -137 -97 -137q-45 0 -104 33q-270 -82 -348 -84zM1247 596 q0 39 56 39q196 -8 446 -213q74 -80 74 -246q-8 -147 -92 -147q-55 0 -107 57q-186 0 -258 18q94 41 158 117q-109 178 -217 307q-59 41 -60 68z" />
<glyph unicode="7" d="M156 694q0 53 55 54q25 0 63 -31q231 61 557 137q7 166 7 291q0 123 -7 172q-63 88 -63 135q0 37 22.5 73t51.5 36t37 -33q47 -74 137 -129q80 -49 80 -131q0 -39 -47 -369q295 47 589 86q-111 119 -307 262q197 -74 406 -184q205 -61 205 -174q0 -115 -222 -115 q-459 0 -690 -53q-14 -94 -14 -160q0 -260 110 -285q88 -16 138 -16q51 0 145 19q119 76 158 75q33 0 89 -28.5t99 -67.5t43 -70q0 -113 -98 -143q-76 -18 -256 -18q-227 0 -375 71q-236 137 -235 549q-131 -51 -228 -104q-84 -37 -180 -37q-61 0 -199 96q-72 53 -71 92z " />
<glyph unicode="8" d="M158 309q0 27 32 41q66 41 121 99q205 252 338 593q-53 70 -53 93q0 39 94 47q57 0 121 -52q100 -94 100 -157q0 -39 -63 -139q-236 -365 -418 -482q-162 -74 -229 -73q-43 0 -43 30zM1034 1276q1 37 58 37q43 0 155 -47q477 -231 703 -574q76 -154 75 -256 q-6 -188 -92 -188q-47 0 -116 69l-342 84q127 25 249 86q-301 403 -596 689q-94 76 -94 100z" />
<glyph unicode="9" d="M223 45q0 20 51 105q14 115 33 198q20 -72 60 -133q194 177 372 621l-92 -43q-41 -16 -61 -27l-47 -21q-84 -31 -111 -30q-41 0 -89 33.5t-81 83t-33 94.5q0 35 41 35q31 0 76 -31q199 47 438 127q37 143 62 342q-86 74 -86 98q0 45 104 66q31 0 88.5 -36t101.5 -85 t44 -86q0 -51 -37 -111l-47 -127l233 70q74 86 131 86q41 0 90 -35t83 -86t34 -94q0 -59 -96 -96q-285 -457 -285 -592q0 -80 51 -117q68 -29 224 -29q135 0 264 33q98 264 98 428q0 53 -12 191q158 -219 196 -633q59 -53 60 -123q0 -68 -86 -109q-123 -47 -279 -47 q-209 0 -399 66q-272 106 -273 350q0 147 191 647q-154 -39 -291 -92q-199 -614 -356 -778q-186 -156 -307 -156q-57 0 -58 43z" />
<glyph unicode="=" d="M338 1098q0 31 47 30q23 0 41 -26q18 -31 61 -76q236 105 568 152q186 27 338 26q78 31 123 31q57 0 104 -33t121 -125q37 -61 37 -112q0 -55 -86 -117q-88 -143 -157 -227t-157 -166q66 -37 109 -97q20 -33 20 -67q0 -37 -43 -72q-27 -14 -71 -14q-43 0 -93 6l-86 4 l-135 6q-113 -14 -155 -14q-61 0 -62 72q0 45 13.5 75.5t54.5 61t121 67.5q86 49 143 108.5t113.5 155t154.5 287.5q-37 14 -100 15q-86 0 -299 -35q-209 -57 -266 -58q-53 0 -129 31q-51 0 -127 -10q53 -47 78.5 -90t39 -98.5t31.5 -176.5l10 -63q23 -131 56 -230 q20 -63 20 -102q0 -84 -86 -84q-96 0 -148.5 152.5t-72.5 324.5q-37 299 -70 340q-61 78 -61 148z" />
<glyph unicode="&#x3e;" d="M780 985q0 25 33 25q16 0 31 -21q12 -20 43 -59q182 86 409 119q131 20 242 20q59 25 90 25q41 0 75 -26t87 -99q27 -45 27 -88t-62 -93q-115 -195 -227 -311q53 -31 80 -76q14 -23 14 -53q0 -29 -25.5 -48t-58.5 -19q-20 0 -65 4q-121 8 -160 8q-92 -10 -111 -10 q-45 0 -45 55q0 53 25.5 86t109.5 76q61 41 102.5 87t82.5 120.5t112 228.5q-31 10 -71 10q-74 0 -215 -26q-150 -45 -193 -46q-37 0 -92 25q-49 0 -92 -8q53 -53 70.5 -103.5t35.5 -183.5q4 -18 8 -51q14 -90 41 -182q14 -49 15 -80q0 -68 -62 -68q-72 0 -109.5 124 t-50.5 253q-29 238 -51 270q-43 59 -43 115z" />
<glyph unicode="?" d="M346 1081l2 21q6 18 35 30.5t57 12.5q20 -2 57.5 -7t49.5 -10q18 -6 26.5 -20t10.5 -49l155 51q154 47 316 68q186 27 338 26q78 31 123 31q57 0 104 -33t121 -125q37 -61 37 -112q0 -55 -86 -117q-49 -76 -90 -184q-20 -53 -21 -54l-41 -92l-43 -94q-20 -47 -20 -51 q2 0 10 -15q20 -33 20 -67q0 -37 -43 -72q-35 -18 -63 -18q-8 0 -101 10q-61 4 -92 8l-59 4q-86 0 -152 -18q-61 -16 -67 -17q-31 0 -49.5 27t-18.5 64v26v21q0 25 2 41q2 31 25 43q10 6 47 6q39 0 102 -6q88 -10 123 -11q23 0 43 4q66 10 86 41l6 15q-12 -2 -59 -2 q-72 -2 -91.5 3t-41.5 34q-49 63 -92 143l-47 84q-25 -66 -108 -139.5t-163 -104.5l35 -90q47 -117 47 -170q0 -84 -86 -84q-96 0 -148.5 152.5t-72.5 324.5q-37 299 -70 340q-53 70 -53 131zM602 909q14 -131 43 -241q23 -102 41 -166q63 37 115 88q88 106 92 180l-168 -31 q-12 0 -14 2q-8 0 -13 2q-8 0 -10 2l-16 9q-37 14 -37 26q0 10 14 11l29 -5q104 12 217 37q2 23 2 62q0 10 -4 51q-33 14 -33 25q0 10 10 16q-203 -43 -268 -68zM915 987q27 0 52 -10q35 -23 34 -33q0 -14 -14 -29q0 -2 -8 -75l78 14l30 12q25 10 33 11q8 0 39 -11 q31 -23 31 -39q0 -8 -12 -10q-8 -2 -41 -2l-50 -6l-114 -25q23 -37 51 -71q55 -72 88 -103l35 -32l49 -46q27 -20 96 -57l11 -6q10 27 38 133l11 41q66 252 110 391q-37 14 -100 15q-86 0 -299 -35q-45 -6 -148 -27z" />
<glyph unicode="@" d="M346 1081l2 21q6 18 35 30.5t57 12.5q20 -2 57.5 -7t49.5 -10q18 -6 26.5 -20t10.5 -49l155 51q154 47 316 68q186 27 338 26q78 31 123 31q57 0 104 -33t121 -125q37 -61 37 -112q0 -55 -86 -117q-49 -76 -90 -184q-20 -53 -21 -54l-41 -92l-43 -94q-20 -47 -20 -51 q2 0 10 -15q20 -33 20 -67q0 -37 -43 -72q-33 -18 -63 -18q-8 0 -101 10q-61 4 -92 8l-59 4q-86 0 -152 -18q-61 -16 -67 -17q-31 0 -49.5 27t-18.5 64v26v21q0 25 2 41q2 31 25 43q12 6 47 6q37 0 102 -6q88 -10 123 -11q23 0 43 4q66 10 86 41q16 27 51 158l11 41 q66 252 110 391q-37 14 -100 15q-86 0 -299 -35q-115 -18 -261.5 -51t-199.5 -54q14 -130 43 -241q35 -160 84 -281q47 -117 47 -170q0 -84 -86 -84q-96 0 -148.5 152.5t-72.5 324.5q-37 299 -70 340q-53 70 -53 131zM776 377q45 35 35 29q152 131 248 272q-53 43 -113 74 q-16 12 -24 14l4 8q88 -20 157 -53q68 98 115 223q2 8 2 25q0 12 -2 18q-10 10 -10 19l2 6q92 -19 98 -64l-20 -28q-59 -113 -133 -224q39 -31 77 -65q27 -35 27 -68q-2 -20 -16 -20q-12 0 -33 20q-37 39 -94 80q-104 -139 -279 -252l-37 -20z" />
<glyph unicode="A" d="M348 1102q-1 -11 -1 -21q0 -65 52 -131q33 -41 70 -340q20 -172 72.5 -324.5t148.5 -152.5q86 0 86 84q0 39 -20 102q-33 78 -68 181q-53 162 -86 409q61 20 197 54q152 35 312.5 60.5t250.5 25.5q63 0 100 -15q-49 -156 -98 -344q-8 12 -70 107q20 35 21 49q0 8 -12 14 q-12 4 -37 4q-23 0 -37 -14q-53 -59 -53 -98v-2q0 -14 28 -37l129 -142q-18 -71 -31.5 -103t-34 -45t-63.5 -20q-20 -4 -43 -4q-35 0 -123 11q-66 6 -102 6q-35 0 -47 -6q-23 -12 -25 -43q-4 -41 -2 -62v-26q0 -37 18.5 -64t49.5 -27q6 0 67 17q66 18 152 18l59 -4 q31 -4 92 -8q92 -10 101 -10q31 0 63 18q43 35 43 72q0 35 -20 67q-4 6 -6 9.5t-4 5.5q6 20 16 41q195 -158 266 -158q35 0 41 10v2q0 14 -22 31q-12 10 -42 30.5t-36 24.5q-127 100 -170 142l51 114l21 54q41 109 90 184q86 61 86 117q0 51 -37 112q-74 92 -121 125 t-104 33q-45 0 -123 -31q-152 0 -338 -26q-115 -16 -187 -33q-104 -25 -284 -86q-2 35 -10.5 49t-26.5 20q-12 4 -49 9.5t-58 7.5q-29 0 -57.5 -12.5t-34.5 -30.5z" />
<glyph unicode="B" d="M18 229q6 -6 23 -6q14 0 22 2q33 6 105 66q45 43 110.5 120.5t102.5 143.5l106 -80q14 -12 37 -12q57 0 58 47q0 49 -50 104q-47 41 -81 58q55 106 98 172q27 35 22 51q-6 43 -73 102q-12 10 -35 11q-20 0 -41 -11q-10 -10 -8 -18q4 -16 26 -53q-33 -102 -90 -213 q-100 26 -153 26h-4q-18 0 -25 -2q-47 -10 -45 -30q2 -14 16 -17q98 -35 162 -80q-53 -88 -197 -262q-32 -33 -67 -78q-6 -4 -13.5 -20.5t-5.5 -20.5zM621 1104q0 31 47 31q23 0 41 -27q18 -31 61 -76q235 105 567 152q179 26 327 26h11q78 31 123 31q57 0 104.5 -32.5 t120.5 -125.5q37 -61 37 -112q0 -55 -86 -117q-88 -143 -156.5 -227t-156.5 -166q66 -37 108 -96q20 -33 21 -68q0 -37 -43 -72q-27 -14 -72 -14q-43 0 -92 6l-86 4l-135 6q-113 -14 -156 -14q-61 0 -61 72q0 45 13 75.5t54 61.5t121 67q86 49 143.5 108.5t114 155 t154.5 287.5q-37 14 -100 15q-86 0 -299 -35q-209 -57 -267 -57q-51 0 -129 30q-51 0 -127 -10q53 -47 79 -90t39 -98.5t32 -176.5l10 -63q23 -131 55 -229q20 -63 21 -103q0 -84 -86 -84q-96 0 -148.5 152.5t-72.5 324.5q-37 299 -70 340q-61 78 -61 148z" />
<glyph unicode="C" d="M18 1100q0 30 45 30h3q23 0 40 -26q18 -31 62 -76q235 105 567 152q179 26 327 26h11q78 31 123 31q57 0 104.5 -33t120.5 -125q37 -61 37 -112q0 -55 -86 -117q-88 -143 -156.5 -227t-156.5 -166q66 -37 108 -97q20 -33 21 -67q0 -37 -43 -72q-27 -14 -72 -14 q-43 0 -92 6l-86 4l-135 6q-113 -14 -156 -14q-61 0 -61 72q0 45 13 75.5t54 61.5t121 67q86 49 143.5 108.5t113.5 155t155 287.5q-37 14 -101 15q-86 0 -299 -35q-209 -57 -266 -58q-51 0 -129 31q-51 0 -127 -10q53 -47 79 -90t39 -98.5t32 -176.5l10 -63 q23 -131 55 -229q20 -63 21 -103q0 -84 -86 -84q-96 0 -148.5 152.5t-72.5 324.5q-37 299 -70 340q-61 78 -62 148zM1438 109q0 12 14 20q160 121 244 317q-68 -18 -99 -18q-27 0 -63.5 29.5t-36.5 46.5q0 14 16 14q12 0 37 -10q70 14 181 31q31 80 43 149q-18 23 -19 29 q0 31 43 31q27 0 65 -31t38 -60q0 -14 -43 -92l157 17q27 10 37 10q33 0 66.5 -37t33.5 -61q0 -23 -32 -56q-55 -170 -118 -268t-163 -98q-55 0 -55 67q-35 63 -53 133l4 4q48 -46 120 -83q39 20 101 137q51 117 61 182q-96 -8 -202 -33q-68 -164 -138.5 -240.5 t-177.5 -129.5q-33 -12 -49 -13q-12 0 -12 13zM1511 1186q0 14 15 14l26 -6q109 14 215 43q4 49 5 72l-5 57q-33 18 -32 29q0 14 16 23q13 7 32 7h9q25 0 52.5 -17t27.5 -32q0 -12 -12 -35q0 2 -5 -38q-6 -53 -4 -48l76 17q15 4 33 14q18 12 31 12q10 0 39 -12 q29 -25 28 -45q0 -6 -12 -10q-16 -4 -39 -4l-49 -6l-74 -19l-41 -10q33 -53 53 -84q51 -76 89 -117q39 -47 61 -67q20 -20 20 -23q20 -20 95 -65q12 -8 20 -17q-12 -4 -117 -4q-39 0 -55 7t-35 34q-49 76 -90 166l-49 98q-16 -59 -70.5 -125.5t-121 -115t-117.5 -56.5 q-8 0 -8 6q0 8 30 27q84 57 127 113q90 127 92 207l-165 -35h-17q-8 0 -20 6l-41 20q-12 10 -13 19z" />
<glyph unicode="D" d="M78 240q0 12 12 20q137 115 207 295q-59 -18 -84 -18q-23 0 -53.5 28.5t-30.5 42.5q0 12 14 13q14 0 31 -9q27 6 152 29q27 82 34 139q-16 20 -16 27q0 12 10 18q10 10 27 11q23 0 54.5 -29t31.5 -55q0 -14 -37 -86q29 4 41 4l92 12q18 8 31 8q29 0 57.5 -33.5 t28.5 -56.5q0 -20 -29 -53q-47 -160 -99 -251t-134 -91q-47 0 -47 65q-29 51 -45 123l4 4q49 -49 100 -78q31 16 84 127q45 104 51 170q-82 -8 -170 -32q-63 -162 -135 -246q-51 -55 -129 -96q-27 -12 -41 -13q-12 0 -12 11zM623 1106q0 31 47 31q23 0 41 -27q18 -31 61 -76 q235 105 567 152q179 26 327 26h11q78 31 123 31q57 0 104.5 -32.5t120.5 -125.5q37 -61 37 -112q0 -55 -86 -117q-88 -143 -156.5 -227t-156.5 -166q66 -37 109 -96q20 -33 20 -68q0 -37 -43 -72q-27 -14 -72 -14q-43 0 -92 6l-86 4l-135 6q-113 -14 -156 -14q-61 0 -61 72 q0 45 13.5 75.5t54 61.5t120.5 68q86 49 143.5 108t114 154.5t154.5 287.5q-37 14 -100 15q-86 0 -299 -35q-209 -57 -267 -57q-51 0 -129 30q-51 0 -127 -10q53 -47 79 -90t39 -98.5t32 -175.5l10 -64q23 -131 55 -229q20 -63 21 -103q0 -84 -86 -84q-96 0 -148.5 152.5 t-72.5 324.5q-37 299 -70 340q-61 78 -61 148z" />
<glyph unicode="E" d="M309 514q0 25 31 39q37 16 94 55q430 306 817 750q-23 68 -22 104q0 37 33 37q78 0 122 -35q115 -137 115 -186q0 -76 -106 -164q-92 -98 -269 -246q90 -143 90 -536q0 -283 -6 -332q-12 -102 -106 -102q-86 0 -127 67q-55 84 -55 144q0 39 49 120q26 262 26 474v16 q0 43 -12 51q-246 -205 -520 -268q-82 -16 -113 -17q-41 0 -41 29z" />
<glyph unicode="F" d="M272 287q0 23 43 53q41 33 111 106q129 145 301 578q-39 57 -39 100q0 17 18.5 29t51.5 12q55 0 84 -24q127 -109 127 -193q0 -35 -51 -117q-154 -293 -285 -421q-74 -74 -205 -127q-76 -31 -123 -31q-33 0 -33 35zM1221 1100q0 37 49 37q53 0 92 -21q395 -242 481 -477 q37 -106 37 -225q0 -47 -26.5 -82t-73.5 -35q-78 0 -162 164q-82 184 -211 377q-104 152 -143 190q-43 43 -43 72z" />
<glyph unicode="G" d="M272 287q0 23 43 53q41 33 111 106q129 145 301 578q-39 57 -39 100q0 17 18.5 29t51.5 12q55 0 84 -24q127 -109 127 -193q0 -35 -51 -117q-154 -293 -285 -421q-74 -74 -205 -127q-76 -31 -123 -31q-33 0 -33 35zM786 100l2 9q270 71 510 94q41 33 52 33 q118 -45 118 -98q0 -24 -26 -25q-88 16 -164 16q-213 0 -428 -74q-35 10 -64 45zM944 559l2 8q94 23 213 58q25 33 31 32q88 -27 88 -61q0 -18 -23 -25q-137 -10 -258 -45q-33 14 -53 33zM1221 1100q0 37 49 37q53 0 92 -21q395 -242 481 -477q37 -106 37 -225 q0 -47 -26.5 -82t-73.5 -35q-78 0 -162 164q-82 184 -211 377q-104 152 -143 190q-43 43 -43 72z" />
<glyph unicode="H" d="M272 287q0 23 43 53q41 33 111 106q129 145 301 578q-39 57 -39 100q0 17 18.5 29t51.5 12q55 0 84 -24q127 -109 127 -193q0 -35 -51 -117q-154 -293 -285 -421q-74 -74 -205 -127q-76 -31 -123 -31q-33 0 -33 35zM778 -6l6 6l33 4q293 63 486 88q29 10 43 33 q129 -27 129 -72q0 -26 -50 -26h-4q-86 4 -123 4q-158 0 -458 -78q-35 16 -62 41zM930 549l6 8q129 26 235 55q6 4 29 27q98 -8 98 -53q0 -16 -32 -19q-102 -2 -291 -53q-39 25 -45 35zM946 295l6 8q130 26 226 57q14 6 24 23q88 -18 88 -53q0 -14 -30 -19q-119 -4 -261 -45 q-43 16 -53 29zM1221 1100q0 37 49 37q53 0 92 -21q395 -242 481 -477q37 -106 37 -225q0 -47 -26.5 -82t-73.5 -35q-78 0 -162 164q-82 184 -211 377q-104 152 -143 190q-43 43 -43 72z" />
<glyph unicode="I" d="M272 287q0 23 43 53q41 33 111 106q129 145 301 578q-39 57 -39 100q0 17 18.5 29t51.5 12q55 0 84 -24q127 -109 127 -193q0 -35 -51 -117q-154 -293 -285 -421q-74 -74 -205 -127q-76 -31 -123 -31q-33 0 -33 35zM715 348l4 10q20 -2 49 -14h43l158 29l399 73 q18 6 43 23q106 -63 107 -98q-20 -31 -29 -56q-55 -322 -88 -444q-27 -88 -58 -88q-12 0 -18 22q-8 29 -29 66q-207 0 -395 -41l-29 4q0 -33 -14 -33q-29 0 -57 66q-25 240 -58 412q-6 29 -14 36q-10 12 -14 33zM805 297q41 -274 63 -412l29 -4q98 18 270 45q25 10 39 29 q59 -10 97 -43q10 -12 18 -12t18 41q31 160 72 426q-6 18 -22 22q-106 0 -240 -27q14 -20 20 -40q-14 -37 -14 -99q0 -49 12 -73q6 -14 35 -15q33 0 62 29q71 0 71 -46q0 -17 -40 -27.5t-78 -10.5q-45 0 -76 15.5t-31 68.5q0 29 -4 151q-10 23 -23 33l-88 -18q43 -41 43 -74 q-45 -170 -155 -264l-2 8q82 143 86 256q-2 29 -15 66q-74 -14 -147 -25zM1221 1100q0 37 49 37q53 0 92 -21q395 -242 481 -477q37 -106 37 -225q0 -47 -26.5 -82t-73.5 -35q-78 0 -162 164q-82 184 -211 377q-104 152 -143 190q-43 43 -43 72z" />
<glyph unicode="J" d="M272 287q0 23 43 53q41 33 111 106q129 145 301 578q-39 57 -39 100q0 17 18.5 29t51.5 12q55 0 84 -24q127 -109 127 -193q0 -35 -51 -117q-154 -293 -285 -421q-74 -74 -205 -127q-76 -31 -123 -31q-33 0 -33 35zM616 -86l5 8q133 23 243 37q66 164 113 317 q-61 -10 -123 -28q-39 20 -59 37l4 10q104 12 194 31q39 123 58 221q-10 33 -27 55l-82 -18q-33 12 -61 30l4 11l102 20q57 12 88 17q45 10 135 26q23 14 35 29q131 -20 131 -60q0 -23 -39 -24q-170 -8 -252 -19q49 -35 66 -90l-76 -184l174 41q18 6 39 22q104 -57 105 -81 q0 -6 -17 -23q-90 -229 -112 -299l178 14q25 14 47 33q156 -39 156 -88q0 -27 -35 -27q-174 8 -312 9q-293 0 -608 -74q-39 14 -74 47zM928 -31l45 4q68 6 211 23q59 203 84 307q0 23 -23 23q-102 -17 -186 -37zM1221 1100q0 37 49 37q53 0 92 -21q395 -242 481 -477 q37 -106 37 -225q0 -47 -26.5 -82t-73.5 -35q-78 0 -162 164q-82 184 -211 377q-104 152 -143 190q-43 43 -43 72z" />
<glyph unicode="K" d="M57 276q0 23 43 54q41 33 111 106q129 145 301 578q-39 57 -39 100q0 16 18.5 28.5t51.5 12.5q57 0 84 -25q127 -109 127 -192q0 -35 -52 -117q-154 -293 -284 -422q-74 -74 -205 -127q-76 -30 -120 -30h-3q-33 0 -33 34zM725 115l2 6l166 20q41 86 76 174 q-57 -8 -82 -14q-18 6 -41 21l2 4l133 18q23 53 39 123q-6 16 -19 31q-18 -2 -55 -11q-18 6 -41 17l2 6l221 35q20 12 25 16q88 -12 88 -35q0 -10 -27 -12q-104 -2 -172 -10q33 -18 45 -51q-37 -63 -22 -43l-29 -58l119 23q14 2 27 12q71 -35 71 -45q0 -6 -12 -12 q-57 -119 -78 -166l121 8q18 4 33 16q106 -20 106 -47q0 -16 -22 -16q-135 6 -213 6q-193 0 -414 -41q-27 8 -49 25zM797 977l2 4q23 0 39 -8h30l412 65q14 2 33 15q78 -41 78 -62q-8 -12 -21 -37q-41 -211 -65 -284q-20 -55 -43 -56q-8 0 -15 15q-8 23 -20 41 q-160 0 -291 -27l-23 4q0 -22 -10 -22q-20 0 -43 43q-25 190 -41 264q-6 16 -12 22t-10 23zM836 1155l2 4q206 41 368 53q31 18 37 19q86 -27 86 -55q0 -10 -20 -13q-51 8 -117 8q-150 0 -309 -41q-27 6 -47 25zM864 944q14 -88 47 -264l21 -4l198 31q16 2 31 16 q41 -2 72 -27q2 -8 12 -8q6 0 15 27q35 166 53 272q-4 12 -17 17q-63 0 -178 -19l17 -27q-10 -31 -11 -63q0 -31 6.5 -43t26.5 -12q25 0 45 18q53 0 53 -31q0 -10 -28.5 -17t-57.5 -7q-79 0 -79 54q0 20 -5 97q-2 10 -14 23q-35 -10 -67 -12q33 -27 32 -47 q-35 -111 -114 -170l-2 6q59 90 63 164q-4 31 -10 40q-74 -12 -109 -14zM936 145l174 17q27 72 57 170q0 12 -14 12q-86 -12 -127 -20q-29 -59 -90 -179zM938 1346l2 4q88 16 154 30q16 18 20 19q63 -14 64 -35q0 -10 -15 -12q-98 -4 -186 -25q-25 6 -39 19zM1403 1090 q0 36 46 36h3q53 0 92 -20q395 -242 481 -477q37 -106 37 -226q0 -47 -26.5 -81.5t-73.5 -34.5q-78 0 -162 164q-82 183 -211 376q-104 152 -143 191q-43 43 -43 72z" />
<glyph unicode="L" d="M57 276q0 23 43 54q41 33 111 106q129 145 301 578q-39 57 -39 100q0 16 18.5 28.5t51.5 12.5q57 0 84 -25q127 -109 127 -192q0 -35 -52 -117q-154 -293 -284 -422q-74 -74 -205 -127q-76 -30 -120 -30h-3q-33 0 -33 34zM752 72l2 6l166 20q41 86 75 174q-57 -8 -82 -14 q-14 4 -41 21l2 4l134 18q27 74 39 123q-6 16 -19 29q-37 -4 -55 -11l-43 19l4 6q166 27 221 35l23 14q90 -10 90 -33q0 -10 -27 -12q-104 -2 -172 -10q33 -18 45 -51q-37 -63 -22 -43l-29 -58l119 23q10 2 26 12q70 -33 70 -45q0 -4 -10 -14q-53 -106 -78 -164q86 6 121 6 q18 8 32 18q106 -20 107 -47q0 -16 -25 -16q-131 6 -211 6q-193 0 -413 -41q-27 8 -49 25zM823 932l2 6q23 0 37 -8h33l412 65q10 2 30 15q80 -39 80 -62q-14 -16 -20 -37q-45 -219 -68 -284q-18 -55 -41 -56q-8 0 -14 15q-8 23 -21 41q-160 0 -292 -27l-21 4q0 -22 -10 -22 q-20 0 -43 43q-20 168 -43 264q-2 16 -10 22q-4 6 -11 21zM889 899l49 -264l20 -2l199 31q18 4 29 16q41 -2 71 -27q6 -8 15 -8q6 0 12 27q35 147 53 272q-2 10 -14 14q-76 0 -178 -16q12 -23 14 -27q-10 -31 -10 -63q0 -33 6 -44t29 -11t45 16q53 0 53 -29q0 -10 -29.5 -17 t-58.5 -7q-80 0 -80 55q0 57 -2 96q-2 14 -16 21q-47 -8 -66 -10q33 -27 33 -50q-35 -109 -115 -167l-2 6q61 96 64 161q-2 29 -13 43q-66 -12 -108 -16zM963 102l174 17q27 72 57 170q0 12 -16 12q-78 -10 -127 -20q-27 -59 -88 -179zM1403 1090q0 36 46 36h3q53 0 92 -20 q395 -242 481 -477q37 -106 37 -226q0 -47 -26.5 -81.5t-73.5 -34.5q-78 0 -162 164q-82 183 -211 376q-104 152 -143 191q-43 43 -43 72z" />
<glyph unicode="M" d="M272 287q0 23 43 53q41 33 111 106q129 145 301 578q-39 57 -39 100q0 17 18.5 29t51.5 12q55 0 84 -24q127 -109 127 -193q0 -35 -51 -117q-154 -293 -285 -421q-74 -74 -205 -127q-76 -31 -123 -31q-33 0 -33 35zM1221 1100q0 37 49 37q53 0 92 -21q395 -242 481 -477 q37 -106 37 -225q0 -47 -26.5 -82t-73.5 -35q-78 0 -162 164q-82 184 -211 377q-104 152 -143 190q-43 43 -43 72zM1618 1272q0 55 27.5 100t78.5 72q44 22 93 22q53 0 99 -27.5t71 -78.5q23 -43 22 -94q0 -53 -27.5 -99.5t-76.5 -72.5q-45 -25 -95 -25q-53 0 -98 28.5 t-72 80.5q-23 43 -22 94zM1726 1268q0 -37 26 -62.5t63 -25.5q35 0 61.5 25.5t26.5 64.5q0 61 -64 84q-17 4 -27 4q-35 0 -60.5 -24.5t-25.5 -65.5z" />
<glyph unicode="N" d="M166 1038q0 49 39 49q20 0 55 -71q47 -72 111 -117q176 207 1169 295q86 29 148 29q72 0 180 -97q94 -92 94 -153q-2 -57 -57 -103q-96 -340 -207 -524q-80 -139 -203 -139q-53 0 -74 67l-295 11q-90 0 -252 -35q-127 -35 -172 -35q-39 0 -100 49l6 -45q-7 -69 -73 -69 q-117 0 -222 223q-145 336 -147 665zM434 815l129 -446q20 -17 45 -17l258 51q-49 0 -94 45.5t-74.5 115t-35.5 138.5q0 47 32 177q-45 -14 -178 -33q-33 -2 -82 -31zM791 907l65 -190l156 213l-92 -322v-86q0 -70 -46 -116l62 14q166 266 254 524l-53 57q-190 -45 -346 -94 zM1057 432l190 14q110 52 139 52q39 0 80 -37q129 297 183 581q-190 0 -357 -14q133 -109 133 -166q0 -94 -368 -430z" />
<glyph unicode="O" d="M438 -61h17q29 0 43 2q68 6 110 22q57 20 99 45q63 37 81 51l35 23l54 41l28 22l35 27l37 31q29 20 43 37l45 43q35 35 49 53q55 61 100 131l396 569q98 55 98 123q0 45 -55 131q-70 98 -123 99q-45 0 -86 -33q-236 -66 -412 -139q12 84 12 102q0 72 -61 141 q-55 55 -102 56q-35 0 -35 -37q0 -20 12 -58q8 -27 8 -57q0 -41 -73 -143q-86 -139 -195 -220q-59 -23 -88 -57q-68 -137 -68 -184q0 -33 29 -63.5t66 -30.5q59 0 231 165q244 238 621 340q-115 -256 -252 -454q-16 74 -185 112q-57 10 -98 11q-88 0 -88 -47q0 -29 43 -48 q102 -72 141 -129q23 -43 54 -69q-145 -229 -386 -402q-133 -109 -180 -206z" />
<glyph unicode="P" d="M137 739q0 -31 39 -37q250 25 426 27q53 2 141 2q129 0 322 -14l45 -4l74 -6q25 0 45 16q12 10 12 22q0 25 -49 33l-231 25q-63 6 -197 6q-293 0 -590 -31q-37 -8 -37 -39zM1425 1573q0 16 15 16q6 0 57 -47q127 -127 252 -354q70 -127 116 -298t48 -335 q-4 -178 -50 -343t-114 -273q-59 -96 -129 -174t-121 -115q-45 -33 -55 -33q-14 0 -14 18q0 16 22 39l35 35q57 57 119 144q68 94 131 270q59 174 69 434q-4 168 -49 342q-70 252 -229 520q-49 80 -80 113q-23 23 -23 41z" />
<glyph unicode="R" d="M305 1143q0 35 98 35q55 0 123 -31q49 -33 90 -80q39 -49 50.5 -80t29.5 -129q0 -43 -30 -67q-29 -29 -74 -29q-74 0 -141 104q-23 29 -74 168q-72 82 -72 109zM623 -14q0 -29 47 -29q76 0 227 82q152 72 295 217q299 311 483 780q45 45 45 105q0 74 -78 157l-26 33 q-4 6 -12.5 14.5t-12.5 10.5q-2 0 -12 10t-12 8t-13 6q-10 8 -14 4t-16 2q-6 2 -11 2q-6 0 -8 -4q-213 -27 -526 -176q-8 16 -61 70q-43 43 -138 43q-55 0 -84 -23q-12 -12 -6 -32q6 -23 19 -39l32 -43l17 -23q43 -104 63.5 -144t51 -65.5t81.5 -25.5q80 0 81 148q0 4 -1 7 q35 51 176.5 96.5t268.5 59.5q-336 -897 -809 -1202q-47 -29 -47 -49z" />
<glyph unicode="S" d="M440 801q0 35 72 35q78 0 150 -66q20 -25 54 -101.5t34 -90.5q0 -76 -84 -76q-45 0 -91 45q-68 68 -94 194q-41 29 -41 60zM709 -49q0 -29 28 -29q25 0 160 53q354 158 557 615q94 133 94 178q0 74 -100 174q-59 41 -109 41q-14 0 -88 -31l-270 -112q-47 86 -147 90 q-33 -11 -39 -17t-7 -14q0 -20 21 -55q35 -74 45 -170q8 -76 98 -76q72 0 92 156q29 37 109 80l123 63l8 -12q12 -18 27 -37q-160 -537 -580 -856q-23 -16 -22 -41z" />
<glyph unicode="T" d="M111 514l2 6q51 0 69 -28q43 8 156 26v105q-4 35 -10 43q-16 23 -17 41l6 6q49 0 80 -54q-6 -37 -6 -36v-97l113 21l39 14q78 -29 78 -57q-16 -12 -23 -21l-55 -114q6 -8 6 -17q0 -8 -25 -8q-49 4 -89 4q-26 0 -48 -2l-4 -178q-4 -74 -10 -115q-2 -25 -15 -24 q-8 0 -16 26q-4 61 -4 113v170q-86 -12 -115 -25q0 -29 -10 -28q-18 0 -37 32q-25 102 -45 168q-6 8 -20 29zM190 463q18 -86 27 -119q74 14 121 23v122q-99 -16 -148 -26zM305 1143q0 35 98 35q55 0 123 -31q49 -33 90 -80q39 -49 50.5 -80t29.5 -129q0 -43 -30 -67 q-29 -29 -74 -29q-74 0 -141 104q-23 29 -74 168q-72 82 -72 109zM387 373q84 12 98 20l25 -8q14 57 25 121q0 8 -7 8q-47 -4 -137 -16zM623 -14q0 -29 47 -29q76 0 227 82q152 72 295 217q299 311 483 780q45 45 45 105q0 74 -78 157l-26 33q-4 6 -12.5 14.5t-12.5 10.5 q-2 0 -12 10t-12 8t-13 6q-10 8 -14 4t-16 2q-6 2 -11 2q-6 0 -8 -4q-213 -27 -526 -176q-8 16 -61 70q-43 43 -138 43q-55 0 -84 -23q-12 -12 -6 -32q6 -23 19 -39l32 -43l17 -23q43 -104 63.5 -144t51 -65.5t81.5 -25.5q80 0 81 148q0 4 -1 7q35 51 176.5 96.5t268.5 59.5 q-336 -897 -809 -1202q-47 -29 -47 -49z" />
<glyph unicode="U" d="M39 -27q10 -12 49 -12q41 0 129 51q51 31 140 106t145 140l104 -104q23 -23 58 -23q57 0 57 51q0 53 -39 111q-41 51 -82 76q104 131 139 170q35 31 35 47q0 53 -63 125q-18 18 -43 18q-29 0 -41 -4q-14 -8 -15 -18q0 -18 21 -62q-66 -121 -137 -213q-154 59 -203 60 q-53 0 -53 -25q0 -14 14 -23q104 -49 168 -112q-82 -94 -266 -246l-41 -31q-45 -37 -49 -41q-6 -2 -17.5 -18t-9.5 -23zM305 1143q0 35 98 35q55 0 123 -31q49 -33 90 -80q39 -49 50.5 -80t29.5 -129q0 -43 -30 -67q-29 -29 -74 -29q-74 0 -141 104q-23 29 -74 168 q-72 82 -72 109zM623 -14q0 -29 47 -29q76 0 227 82q152 72 295 217q299 311 483 780q45 45 45 105q0 74 -78 157l-26 33q-4 6 -12.5 14.5t-12.5 10.5q-2 0 -12 10t-12 8t-13 6q-10 8 -14 4t-16 2q-6 2 -11 2q-6 0 -8 -4q-213 -27 -526 -176q-8 16 -61 70q-43 43 -138 43 q-55 0 -84 -23q-12 -12 -6 -32q6 -23 19 -39l32 -43l17 -23q43 -104 63.5 -144t51 -65.5t81.5 -25.5q80 0 81 148q0 4 -1 7q35 51 176.5 96.5t268.5 59.5q-336 -897 -809 -1202q-47 -29 -47 -49z" />
<glyph unicode="V" d="M305 1143q0 35 98 35q55 0 123 -31q49 -33 90 -80q39 -49 50.5 -80t29.5 -129q0 -43 -30 -67q-29 -29 -74 -29q-74 0 -141 104q-23 29 -74 168q-72 82 -72 109zM623 -14q0 -29 47 -29q76 0 227 82q152 72 295 217q299 311 483 780q45 45 45 105q0 74 -78 157l-26 33 q-4 6 -12.5 14.5t-12.5 10.5q-2 0 -12 10t-12 8t-13 6q-10 8 -14 4t-16 2q-6 2 -11 2q-6 0 -8 -4q-213 -27 -526 -176q-8 16 -61 70q-43 43 -138 43q-55 0 -84 -23q-12 -12 -6 -32q6 -23 19 -39l32 -43l17 -23q43 -104 63.5 -144t51 -65.5t81.5 -25.5q80 0 81 148q0 4 -1 7 q35 51 176.5 96.5t268.5 59.5q-336 -897 -809 -1202q-47 -29 -47 -49zM1495 508l2 6q51 0 70 -29q43 8 155 27v104q-4 33 -10 43q-16 23 -16 41l6 7q49 0 80 -54l-6 -37v-96l112 21l39 14q78 -29 78 -57q-16 -12 -23 -21l-55 -115q6 -8 6 -16t-24 -8q-49 4 -89 4 q-26 0 -48 -2l-5 -178q-4 -76 -10 -115q-2 -24 -13 -24h-1q-8 0 -17 26q-4 61 -4 113v170q-86 -12 -114 -25q0 -29 -11 -28q-18 0 -36 32q-25 102 -45 168q-6 8 -21 29zM1575 457q18 -86 27 -119q74 14 120 22v123q-94 -14 -147 -26zM1772 367l59 8q23 2 39 12q8 -2 24 -10 q16 61 25 123q0 8 -6 8q-47 -4 -137 -16z" />
<glyph unicode="W" d="M305 1143q0 35 98 35q55 0 123 -31q49 -33 90 -80q39 -49 50.5 -80t29.5 -129q0 -43 -30 -67q-29 -29 -74 -29q-74 0 -141 104q-23 29 -74 168q-72 82 -72 109zM623 -14q0 -29 47 -29q76 0 227 82q152 72 295 217q299 311 483 780q45 45 45 105q0 74 -78 157l-26 33 q-4 6 -12.5 14.5t-12.5 10.5q-2 0 -12 10t-12 8t-13 6q-10 8 -14 4t-16 2q-6 2 -11 2q-6 0 -8 -4q-213 -27 -526 -176q-8 16 -61 70q-43 43 -138 43q-55 0 -84 -23q-12 -12 -6 -32q6 -23 19 -39l32 -43l17 -23q43 -104 63.5 -144t51 -65.5t81.5 -25.5q80 0 81 148q0 4 -1 7 q35 51 176.5 96.5t268.5 59.5q-336 -897 -809 -1202q-47 -29 -47 -49zM1292 -31q10 -12 49 -12q41 0 129 51q51 29 140.5 103.5t144.5 140.5l105 -102q20 -25 57 -25q57 0 57 53q0 51 -39 109q-41 51 -82 78q90 115 140 167q35 35 35 50q0 53 -64 123q-18 18 -43 18 q-29 0 -41 -4q-14 -6 -14 -17q0 -18 20 -61q-66 -123 -137 -213q-154 59 -203 59q-53 0 -53 -26q0 -14 14 -21q106 -53 168 -114q-84 -92 -264 -244l-43 -31q-45 -37 -49 -41q-8 -8 -18.5 -22.5t-8.5 -18.5z" />
<glyph unicode="X" d="M305 1143q0 35 98 35q55 0 123 -31q49 -33 90 -80q39 -49 50.5 -80t29.5 -129q1 -42 -30 -67q-29 -29 -74 -29q-74 0 -141 104q-23 29 -74 168q-72 82 -72 109zM623 -14q0 20 47 49q178 115 344 321l-133 179q-31 27 -31 47q0 45 55 116q16 18 37 19q23 0 35 -4 q12 -8 12 -19q0 -2 -4 -18q47 -104 113 -205q209 303 381 766q-127 -14 -268.5 -59t-176.5 -97q0 -4 1 -7q0 -148 -80 -148h-1q-51 0 -81.5 25.5t-51 65.5t-63.5 144l-17 23l-32 43q-12 16 -19 39q-2 4 -2 12q0 12 8 20q29 23 84 23q94 0 138 -43q53 -53 61 -70 q313 150 526 176q1 4 8 4q4 0 11 -2q12 -6 16 -2t14 -4t13 -6q2 2 12 -8t12 -10q4 -2 12.5 -10.5t12.5 -14.5l26 -33q78 -84 78 -157q0 -60 -45 -105q-174 -444 -452 -747q90 -119 151 -174q10 -10 37 -29q35 -31 41 -39q6 -2 12 -23.5t4 -27.5q-6 -12 -38 -12 q-66 0 -228 155l-65 64q-113 -102 -240 -164q-152 -82 -227 -82q-47 0 -47 29z" />
<glyph unicode="Y" d="M305 1143q0 35 98 35q55 0 123 -31q49 -33 90 -80q39 -49 50.5 -80t29.5 -129q0 -43 -30 -67q-29 -29 -74 -29q-74 0 -141 104q-23 29 -74 168q-72 82 -72 109zM623 -14q0 -29 47 -29q76 0 227 82q152 72 295 217q299 311 483 780q45 45 45 105q0 74 -78 157l-26 33 q-4 6 -12.5 14.5t-12.5 10.5q-2 0 -12 10t-12 8t-13 6q-10 8 -14 4t-16 2q-16 4 -19 -2q-213 -27 -526 -176q-8 16 -61 70q-43 43 -138 43q-55 0 -84 -23q-12 -12 -6 -32q6 -23 19 -39l32 -43l17 -23q43 -104 63.5 -144t51 -65.5t81.5 -25.5q80 0 80 148v7q35 51 176.5 96.5 t268.5 59.5q-336 -897 -809 -1202q-47 -29 -47 -49zM1667 1413q0 55 27.5 100.5t79.5 71.5q47 25 94 25q51 0 96 -29t72 -80q23 -43 22 -94q0 -55 -27.5 -100t-78.5 -72q-43 -23 -92 -23q-53 0 -99.5 28t-70.5 79q-23 43 -23 94zM1776 1409q0 -29 16 -51.5t45 -32.5 q16 -4 27 -4q35 0 61.5 25.5t26.5 64.5q0 29 -17.5 52.5t-46.5 31.5q-10 4 -28 4q-35 0 -59.5 -25.5t-24.5 -64.5z" />
<glyph unicode="Z" d="M111 514l2 6q51 0 69 -28q43 8 156 26v105q-4 35 -10 43q-16 23 -17 41l6 6q49 0 80 -54q-6 -37 -6 -36v-97l113 21l39 14q78 -29 78 -57q-16 -12 -23 -21l-55 -114q6 -8 6 -17q0 -8 -25 -8q-49 4 -89 4q-26 0 -48 -2l-4 -178q-4 -74 -10 -115q-2 -25 -15 -24 q-8 0 -16 26q-4 61 -4 113v170q-86 -12 -115 -25q0 -29 -10 -28q-18 0 -37 32q-25 102 -45 168q-6 8 -20 29zM190 463q18 -86 27 -119q74 14 121 23v122q-99 -16 -148 -26zM305 1143q0 35 98 35q55 0 123 -31q49 -33 90 -80q39 -49 50.5 -80t29.5 -129q0 -43 -30 -67 q-29 -29 -74 -29q-74 0 -141 104q-23 29 -74 168q-72 82 -72 109zM387 373q84 12 98 20l25 -8q14 57 25 121q0 8 -7 8q-47 -4 -137 -16zM623 -14q0 -29 47 -29q76 0 227 82q152 72 295 217q299 311 483 780q45 45 45 105q0 74 -78 157l-26 33q-4 6 -12.5 14.5t-12.5 10.5 q-2 0 -12 10t-12 8t-13 6q-10 8 -14 4t-16 2q-16 4 -19 -2q-213 -27 -526 -176q-8 16 -61 70q-43 43 -138 43q-55 0 -84 -23q-12 -12 -6 -32q6 -23 19 -39l32 -43l17 -23q43 -104 63.5 -144t51 -65.5t81.5 -25.5q80 0 81 148q0 4 -1 7q35 51 176.5 96.5t268.5 59.5 q-336 -897 -809 -1202q-47 -29 -47 -49zM1667 1413q0 55 27.5 100.5t79.5 71.5q47 25 94 25q51 0 96 -29t72 -80q23 -43 22 -94q0 -55 -27.5 -100t-78.5 -72q-43 -23 -92 -23q-53 0 -99.5 28t-70.5 79q-23 43 -23 94zM1776 1409q0 -29 16 -51.5t45 -32.5q16 -4 27 -4 q35 0 61.5 25.5t26.5 64.5q0 29 -17.5 52.5t-46.5 31.5q-10 4 -28 4q-35 0 -59.5 -25.5t-24.5 -64.5z" />
<glyph unicode="[" d="M39 -27q10 -12 49 -12q41 0 129 51q51 31 140 106t145 140l104 -104q23 -23 58 -23q57 0 57 51q0 53 -39 111q-41 51 -82 76q104 131 139 170q35 31 35 47q0 53 -63 125q-18 18 -43 18q-29 0 -41 -4q-14 -8 -15 -18q0 -18 21 -62q-66 -121 -137 -213q-154 59 -203 60 q-53 0 -53 -25q0 -14 14 -23q104 -49 168 -112q-82 -94 -266 -246l-41 -31q-45 -37 -49 -41q-6 -2 -17.5 -18t-9.5 -23zM305 1143q0 35 98 35q55 0 123 -31q49 -33 90 -80q39 -49 50.5 -80t29.5 -129q0 -43 -30 -67q-29 -29 -74 -29q-74 0 -141 104q-23 29 -74 168 q-72 82 -72 109zM623 -14q0 -29 47 -29q76 0 227 82q152 72 295 217q299 311 483 780q45 45 45 105q0 74 -78 157l-26 33q-4 6 -12.5 14.5t-12.5 10.5q-2 0 -12 10t-12 8t-13 6q-10 8 -14 4t-16 2q-16 4 -19 -2q-213 -27 -526 -176q-8 16 -61 70q-43 43 -138 43 q-55 0 -84 -23q-12 -12 -6 -32q6 -23 19 -39l32 -43l17 -23q43 -104 63.5 -144t51 -65.5t81.5 -25.5q82 0 80 155q35 51 176.5 96.5t268.5 59.5q-336 -897 -809 -1202q-47 -29 -47 -49zM1667 1413q0 55 27.5 100.5t79.5 71.5q47 25 94 25q51 0 96 -29t72 -80q23 -43 22 -94 q0 -55 -27.5 -100t-78.5 -72q-43 -23 -92 -23q-53 0 -99.5 28t-70.5 79q-23 43 -23 94zM1776 1409q0 -29 16 -51.5t45 -32.5q16 -4 27 -4q35 0 61.5 25.5t26.5 64.5q0 29 -17.5 52.5t-46.5 31.5q-10 4 -28 4q-35 0 -59.5 -25.5t-24.5 -64.5z" />
<glyph unicode="\" d="M305 1143q0 35 98 35q55 0 123 -31q49 -33 90 -80q39 -49 50.5 -80t29.5 -129q1 -42 -30 -67q-29 -29 -74 -29q-74 0 -141 104q-23 29 -74 168q-72 82 -72 109zM623 -14q0 20 47 49q178 115 344 321l-133 179q-31 27 -31 47q0 45 55 116q16 18 37 19q23 0 35 -4 q12 -8 12 -19q0 -2 -4 -18q47 -104 113 -205q209 303 381 766q-127 -14 -268.5 -59t-176.5 -97q2 -156 -80 -155q-51 0 -81.5 25.5t-51 65.5t-63.5 144l-17 23l-32 43q-12 16 -19 39q-2 4 -2 12q0 12 8 20q29 23 84 23q94 0 138 -43q53 -53 61 -70q313 150 526 176q2 6 19 2 q12 -6 16 -2t14 -4t13 -6q2 2 12 -8t12 -10q4 -2 12.5 -10.5t12.5 -14.5l26 -33q78 -84 78 -157q0 -59 -45 -105q-174 -444 -452 -747q90 -119 151 -174q10 -10 37 -29q35 -31 41 -39q6 -2 12 -23.5t4 -27.5q-6 -12 -38 -12q-66 0 -228 155l-65 64q-113 -102 -240 -164 q-152 -82 -227 -82q-47 0 -47 29zM1667 1413q0 55 27.5 100.5t79.5 71.5q47 25 94 25q51 0 96 -29t72 -80q22 -43 22 -94q0 -55 -27.5 -100t-78.5 -72q-43 -23 -92 -23q-53 0 -99.5 28t-70.5 79q-23 43 -23 94zM1776 1409q0 -29 16 -51.5t45 -32.5q16 -4 27 -4q29 0 52 17.5 t32 45.5q4 17 4 27q0 29 -17.5 52.5t-46.5 31.5q-10 4 -28 4q-35 0 -59.5 -25.5t-24.5 -64.5z" />
<glyph unicode="]" horiz-adv-x="2048" />
<glyph unicode="^" horiz-adv-x="2048" />
<glyph unicode="_" d="M508 1210q0 23 28.5 38.5t61.5 15.5q41 0 82 -39q150 -143 149 -234q0 -51 -20 -141q-27 -133 -27 -156l-4 -39l-6 -59q-8 -147 -12 -295q272 78 659 379q135 115 271 264q31 41 51 41q27 0 26 -20q0 -20 -24 -80q-104 -287 -336 -494q-227 -184 -584 -352 q-63 -88 -112 -88q-39 0 -76 42t-60.5 97t-23.5 86q0 47 20 96q2 68 2 381q0 281 7 480q-72 55 -72 77z" />
<glyph unicode="`" d="M1053 887q0 16 20.5 27.5t40.5 11.5q25 0 57 -29q102 -102 103 -164q0 -39 -14 -98q-23 -127 -28 -198.5t-5 -184.5q190 55 450 264q88 76 187 184q23 29 34 29q18 0 19 -14q0 -14 -19 -56q-72 -201 -229 -346q-156 -129 -399 -245q-45 -61 -78 -62q-27 0 -51.5 30 t-41 68.5t-16.5 59.5q0 33 15 67v267q0 152 4 336q-49 41 -49 53z" />
<glyph unicode="a" d="M508 1210q0 -23 72 -77q-6 -199 -7 -480q0 -313 -2 -381q-20 -49 -20 -96q0 -31 23.5 -86t60.5 -97t76 -42q49 0 112 88q229 106 428 240q76 -72 147.5 -119t106.5 -47q37 0 39 12v2q0 10 -5 27.5t-9 21.5q-29 29 -78 66q-63 59 -100 106l55 43q231 207 336 494 q24 57 24 78.5t-26 21.5q-20 0 -51 -41q-135 -150 -271 -264q-94 -74 -200 -148q-57 92 -115 211q6 14 4 19q0 20 -47 20q-20 0 -35 -18q-55 -70 -55 -117q0 -14 28 -47l105 -139q-190 -113 -344 -160q4 147 12 295q6 55 4 45q0 10 4 39q6 47 15 92q4 20 14 78q20 90 20 141 q0 90 -149 234q-41 39 -82 39q-33 0 -61.5 -15.5t-28.5 -38.5z" />
<glyph unicode="b" d="M508 1210q0 23 28.5 38.5t61.5 15.5q41 0 82 -39q149 -142 149 -233q0 -52 -20 -142q-27 -133 -27 -156l-4 -39l-6 -59q-8 -147 -12 -295q272 78 659 379q135 115 271 264q31 41 51 41q27 0 26 -20q0 -20 -24 -80q-104 -287 -336 -494q-227 -184 -584 -352 q-63 -88 -112 -88q-39 0 -76 42t-60.5 97t-23.5 86q0 47 20 96q2 68 2 381q0 281 7 480q-72 55 -72 77zM1477 381l2 6q47 0 69 -29q51 10 154 27v104q0 29 -10 43q-14 20 -15 41l4 7q51 0 82 -54q-4 -25 -4 -37l-4 -96l115 21l39 14q78 -29 78 -57q-12 -8 -23 -21l-55 -114 q4 -12 4 -17q0 -8 -23 -8l-55 6q-53 0 -82 -4l-4 -176q-2 -39 -10 -117q-2 -24 -16 -24h-1q-6 0 -14 26l-6 115v168q-86 -12 -115 -25q0 -29 -8 -28q-23 0 -37 32q-25 102 -45 168q-18 23 -20 29zM1554 330q10 -51 29 -119q72 14 119 22v123q-99 -16 -148 -26zM1753 240 q82 12 96 20q6 -2 12.5 -4t14.5 -4q14 57 25 121q0 8 -9 8q-41 -4 -139 -16v-125z" />
<glyph unicode="c" d="M508 1210q0 23 28.5 38.5t61.5 15.5q41 0 82 -39q149 -142 149 -233q0 -52 -20 -142q-27 -133 -27 -156l-4 -39l-6 -59q-8 -147 -12 -295q272 78 659 379q135 115 271 264q31 41 51 41q27 0 26 -20q0 -20 -24 -80q-104 -287 -336 -494q-227 -184 -584 -352 q-63 -88 -112 -88q-39 0 -76 42t-60.5 97t-23.5 86q0 47 20 96q2 68 2 381q0 281 7 480q-72 55 -72 77zM1386 -39q41 0 130 51q51 31 140 106t144 140l105 -104q23 -23 59 -23q55 0 55 51q0 53 -39 111q-41 51 -82 76q90 113 142 170q35 31 35 47q0 49 -66 125 q-18 18 -43 18q-29 0 -41 -4q-14 -8 -14 -18q0 -18 20 -62q-66 -121 -137 -213q-154 59 -201 60q-55 0 -55 -25q0 -14 14 -21q106 -53 168 -114q-80 -92 -264 -246q-82 -62 -92 -72q-6 -2 -18 -18q-10 -14 -9 -19q0 -16 49 -16z" />
<glyph unicode="d" d="M508 1210q0 23 28.5 38.5t61.5 15.5q41 0 82 -39q149 -142 149 -233q0 -52 -20 -142q-27 -133 -27 -156l-4 -39l-6 -59q-8 -147 -12 -295q272 78 659 379q135 115 271 264q31 41 51 41q26 0 26 -19q0 -21 -24 -81q-104 -287 -336 -494q-227 -184 -584 -352 q-63 -88 -112 -88q-39 0 -76 42t-60.5 97t-23.5 86q0 47 20 96q2 68 2 381q0 281 7 480q-72 55 -72 77zM911 684q39 0 129 53q51 29 141.5 103.5t145.5 140.5l105 -104q23 -23 57 -23q57 0 57 51q0 53 -39 111q-43 53 -84 78q76 96 142 168q35 31 34 49q0 51 -65 123 q-14 18 -43 18t-41 -4q-14 -8 -14 -18q0 -12 22 -62q-61 -113 -139 -213q-147 61 -201 62q-53 0 -53 -27q0 -14 14 -21q111 -57 168 -114q-86 -96 -266 -246q-76 -58 -90 -70q-9 -5 -19 -21q-9 -14 -8 -18q0 -16 47 -16z" />
<glyph unicode="e" d="M508 1210q0 23 28.5 38.5t61.5 15.5q41 0 82 -39q149 -142 149 -233q0 -52 -20 -142q-27 -133 -27 -156l-4 -39l-6 -59q-8 -147 -12 -295q272 78 659 379q135 115 271 264q31 41 51 41q27 0 26 -20q0 -20 -24 -80q-104 -287 -336 -494q-227 -184 -584 -352 q-63 -88 -112 -88q-39 0 -76 42t-60.5 97t-23.5 86q0 47 20 96q2 68 2 381q0 281 7 480q-72 55 -72 77zM1477 381l2 6q47 0 69 -29q51 10 154 27v104q0 29 -10 43q-14 20 -15 41l4 7q51 0 82 -54q-4 -25 -4 -37l-4 -96l115 21l39 14q78 -29 78 -57q-12 -8 -23 -21l-55 -114 q4 -12 4 -17q0 -8 -23 -8l-55 6q-53 0 -82 -4l-4 -176q-2 -39 -10 -117q-2 -24 -16 -24h-1q-6 0 -14 26l-6 115v168q-86 -12 -115 -25q0 -29 -8 -28q-23 0 -37 32q-25 102 -45 168q-18 23 -20 29zM1554 330q10 -51 29 -119q72 14 119 22v123q-99 -16 -148 -26zM1618 1272 q0 55 27.5 100t78.5 72q44 22 93 22q53 0 99 -27.5t71 -78.5q23 -43 22 -94q0 -53 -27.5 -99.5t-76.5 -72.5q-45 -25 -95 -25q-53 0 -98 28.5t-72 80.5q-23 43 -22 94zM1726 1268q0 -37 26 -62.5t63 -25.5q35 0 61.5 25.5t26.5 64.5q0 61 -64 84q-17 4 -27 4 q-35 0 -60.5 -24.5t-25.5 -65.5zM1753 240q82 12 96 20q6 -2 12.5 -4t14.5 -4q14 57 25 121q0 8 -9 8q-41 -4 -139 -16v-125z" />
<glyph unicode="f" d="M508 1210q0 23 28.5 38.5t61.5 15.5q41 0 82 -39q149 -142 149 -233q0 -52 -20 -142q-27 -133 -27 -156l-4 -39l-6 -59q-8 -147 -12 -295q272 78 659 379q135 115 271 264q31 41 51 41q27 0 26 -20q0 -20 -24 -80q-104 -287 -336 -494q-227 -184 -584 -352 q-63 -88 -112 -88q-39 0 -76 42t-60.5 97t-23.5 86q0 47 20 96q2 68 2 381q0 281 7 480q-72 55 -72 77zM1386 -39q41 0 130 51q51 31 140 106t144 140l105 -104q23 -23 59 -23q55 0 55 51q0 53 -39 111q-41 51 -82 76q90 113 142 170q35 31 35 47q0 49 -66 125 q-18 18 -43 18q-29 0 -41 -4q-14 -8 -14 -18q0 -18 20 -62q-66 -121 -137 -213q-154 59 -201 60q-55 0 -55 -25q0 -14 14 -21q106 -53 168 -114q-80 -92 -264 -246q-82 -62 -92 -72q-6 -2 -18 -18q-9 -14 -9 -19q0 -16 49 -16zM1618 1272q0 55 27.5 100t78.5 72q44 22 93 22 q53 0 99 -27.5t71 -78.5q23 -43 22 -94q0 -53 -27.5 -99.5t-76.5 -72.5q-45 -25 -95 -25q-53 0 -98 28.5t-72 80.5q-23 43 -22 94zM1726 1268q0 -37 26 -62.5t63 -25.5q35 0 61.5 25.5t26.5 64.5q0 61 -64 84q-17 4 -27 4q-35 0 -60.5 -24.5t-25.5 -65.5z" />
<glyph unicode="g" d="M508 1210q0 23 28.5 38.5t61.5 15.5q41 0 82 -39q149 -142 149 -233q0 -52 -20 -142q-27 -133 -27 -156l-4 -39l-6 -59q-10 -147 -12 -295q272 78 659 379q61 53 121 108q-45 72 -86 164q-23 51 -57 119q-23 -72 -89.5 -152.5t-146.5 -140t-143 -67.5q-10 0 -10 8 q4 10 36 31q98 68 156 137q109 154 111 254l-201 -43h-18q-2 0 -15 4l-30 14q-45 23 -46 37q0 16 17 16l33 -6q123 14 262 54q4 57 4 86q0 16 -4 69q-41 23 -41 37q0 37 63 37q31 0 69 -21.5t38 -40.5q0 -18 -17 -41q0 4 -4 -49q0 -12 -8 -55l94 18q11 2 58 25q10 6 22 6 q23 0 45 -14q35 -29 35 -53q0 -12 -14 -15q2 0 -47 -4q-41 -4 -62 -8l-137 -35q59 -102 117 -180q55 -74 92 -111l2 -2q-2 -2 72 78q31 41 51 41q27 0 26 -20q0 -20 -24 -80q-12 -35 -41 -101q51 -37 90 -59l25 -18q-6 -6 -91 -7h-69q-102 -180 -250 -309 q-227 -184 -584 -352q-63 -88 -112 -88q-39 0 -76 42t-60.5 97t-23.5 86q0 47 20 96q2 68 2 381q0 279 7 480q-72 55 -72 77z" />
<glyph unicode="h" d="M508 1210q0 23 28.5 38.5t61.5 15.5q41 0 82 -39q149 -142 149 -233q0 -52 -20 -142q-27 -133 -27 -156l-4 -39l-6 -59q-8 -147 -12 -295q272 78 659 379q135 115 271 264q31 41 51 41q26 0 26 -19q0 -21 -24 -81q-104 -287 -336 -494q-227 -184 -584 -352 q-63 -88 -112 -88q-39 0 -76 42t-60.5 97t-23.5 86q0 47 20 96q2 68 2 381q0 281 7 480q-72 55 -72 77zM997 1010l2 8q223 58 416 74q33 25 43 24q96 -37 96 -76q0 -16 -22 -20q-68 12 -133 12q-178 0 -350 -57q-33 10 -52 35zM1126 1372l2 6q70 14 172 45q20 27 27 27 q72 -23 72 -49q0 -14 -19 -19q-111 -6 -211 -36q-20 8 -43 26z" />
<glyph unicode="i" d="M508 1210q0 23 28.5 38.5t61.5 15.5q41 0 82 -39q149 -142 149 -233q0 -52 -20 -142q-27 -133 -27 -156l-4 -39l-6 -59q-8 -147 -12 -295q272 78 659 379q135 115 271 264q31 41 51 41q27 0 26 -20q0 -20 -24 -80q-104 -287 -336 -494q-227 -184 -584 -352 q-63 -88 -112 -88q-39 0 -76 42t-60.5 97t-23.5 86q0 47 20 96q2 68 2 381q0 281 7 480q-72 55 -72 77zM987 1010l6 6l31 2q241 49 436 74q25 10 39 28q117 -27 117 -61q-4 -23 -49 -23q-78 4 -109 4q-147 0 -414 -67q-37 16 -57 37zM1126 1475l4 6q115 22 211 49 q12 6 27 20q90 -10 90 -43q0 -14 -33 -16q-84 -2 -260 -45q-27 16 -39 29zM1139 1262l6 8q131 27 203 47q16 4 22 18q78 -16 78 -45q0 -12 -27 -14q-106 -4 -233 -39q-41 16 -49 25zM1329 -14l4 4q49 6 166 20q43 88 76 176q-43 -6 -82 -16q-16 6 -41 20l2 7q47 4 133 16 q27 74 39 123q-6 16 -18 31q-23 -2 -58 -11l-41 19l4 4l222 35q25 18 22 16q90 -10 90 -33q0 -12 -26 -12l-172 -10q33 -20 45 -51l-52 -103q43 8 72 13.5t47 9.5q10 2 27 12q70 -33 70 -45q0 -2 -11 -12q-57 -119 -78 -166l121 8l33 18q106 -20 107 -49q0 -14 -25 -14 l-211 4q-193 0 -414 -41q-33 10 -51 27zM1542 14l174 17q27 72 58 170q0 12 -17 12q-78 -10 -127 -20q-57 -119 -88 -179z" />
<glyph unicode="j" d="M508 1210q0 23 28.5 38.5t61.5 15.5q41 0 82 -39q149 -142 149 -233q0 -52 -20 -142q-27 -133 -27 -156l-4 -39l-6 -59q-10 -147 -12 -295q92 27 219 90q-6 31 -6 60q0 92 48 170.5t134 126.5q74 40 156 40h4q98 0 180 -59q41 39 125 133l70 82q31 41 51 41q27 0 26 -20 q1 -14 -65 -174q-55 -92 -113 -166l13 -25q41 -82 40 -166q0 -92 -48 -171t-134 -126q-76 -41 -160 -41q-123 0 -215 88l-61 -41q-72 -47 -201 -104q-63 -88 -112 -88q-39 0 -76 42t-60.5 97t-23.5 86q0 47 20 96q2 68 2 381q0 279 7 480q-72 55 -72 77zM1061 436 q160 88 371 244q-14 8 -43 20q-47 14 -78 15q-80 0 -146.5 -52.5t-91.5 -138.5q-12 -43 -12 -88zM1151 233q37 -33 86 -49q37 -14 80 -14q80 0 145.5 52t89.5 138q13 39 13 82q0 61 -27 121q-96 -113 -219 -207l-131 -96z" />
<glyph unicode="k" horiz-adv-x="2048" />
<glyph unicode="l" horiz-adv-x="2048" />
<glyph unicode="m" d="M303 719q0 -55 39 -88q168 -102 231 -103q61 0 172 45q111 55 263 89q-29 -344 -269 -584q-70 -72 -141 -117q-35 -23 -35 -41q0 -26 29 -26h2q117 0 373 182q117 94 161 188q61 119 101 422l436 -4q51 0 100 14q72 25 72 90q0 78 -184 129q-72 -2 -228 -30l-90 -17 l-98 -16q6 43 6 90q0 88 -127 166q264 90 287 115q31 29 31 55q0 82 -101 182q-47 53 -92 53q-61 0 -61 -24q0 -33 12 -80q-190 -156 -449 -281q-104 -49 -159 -67q-41 -12 -41 -41q0 -31 53 -31q139 0 367 64q0 -61 57 -76l-4 -150q-238 -36 -545 -106q-115 37 -131 37 q-37 0 -37 -39z" />
<glyph unicode="n" d="M897 594q0 -35 25 -59q106 -70 149 -70q37 0 111 31q68 39 166 59q-16 -231 -170 -395q-45 -49 -93 -80q-20 -14 -20 -29q0 -18 18 -18q78 0 240 125q74 61 102 127q37 72 66 286l278 -2q41 0 76 16.5t35 55.5q0 55 -119 88q-51 -4 -145 -20q-76 -16 -121 -23q4 37 4 59 q0 63 -82 115q168 57 185 78q20 14 20 37q0 53 -66 125q-29 35 -59 35q-39 0 -39 -17q0 -27 8 -53q-121 -104 -286 -193q-57 -29 -103 -45q-27 -8 -26 -28q0 -20 34 -21q86 0 234 43q0 -41 35 -51v-102q-186 -31 -348 -72q-72 25 -84 25q-25 0 -25 -27z" />
<glyph unicode="o" d="M303 719q0 -55 39 -88q168 -102 231 -103q61 0 172 45q111 55 263 89q-29 -344 -269 -584q-70 -72 -141 -117q-35 -23 -35 -41q0 -27 31 -26q117 0 373 182q117 94 161 188q61 119 101 422l436 -4q51 0 100 14q72 25 72 90q0 78 -184 129q-72 -2 -228 -30l-90 -17 l-98 -16q6 43 6 90q0 88 -127 166q264 90 287 115q31 29 31 55q0 82 -101 182q-47 53 -92 53q-61 0 -61 -24q0 -33 12 -80q-190 -156 -449 -281q-104 -49 -159 -67q-41 -12 -41 -41q0 -31 53 -31q139 0 367 64q0 -61 57 -76l-4 -150q-238 -36 -545 -106q-115 37 -131 37 q-37 0 -37 -39zM1122 -193q41 0 129 52q53 33 143.5 106.5t143.5 138.5q53 -55 104 -104q23 -23 58 -23q57 0 57 52q0 53 -39 110q-43 51 -84 76q76 96 142 168q35 35 34 49q0 49 -65 125q-18 18 -43 18q-31 0 -41 -6q-14 -6 -14 -16q0 -12 22 -61q-61 -113 -139 -213 q-150 59 -201 59q-53 0 -53 -27q0 -14 14 -20q109 -55 168 -113q-86 -96 -266 -246l-41 -30q-45 -37 -49 -41q-8 -3 -18 -19q-9 -13 -9 -20q0 -14 47 -15z" />
<glyph unicode="p" d="M33 -248q6 -14 47 -14q39 0 129 53q53 31 143 104.5t142 139.5l106 -105q23 -23 57 -22q55 0 56 51q0 53 -37 111q-43 53 -84 77q76 96 141 168q35 31 35 50q0 51 -66 122q-18 18 -43 19q-29 0 -41 -4q-14 -8 -14 -19q0 -12 23 -61q-61 -113 -140 -213q-147 61 -200 61 q-55 0 -56 -26q0 -14 15 -21q111 -55 170 -114q-86 -96 -266 -246q-83 -62 -91 -70q-8 -6 -19 -21q-8 -12 -8 -17q0 -2 1 -3zM498 715q0 -55 39 -88q168 -102 231 -103q61 0 172 45q111 55 262 88q-29 -344 -268 -583q-72 -72 -141 -117q-35 -23 -35 -41q0 -27 30 -27 q117 0 373 183q117 94 162 188q61 119 100 422l437 -4q51 0 100 14q72 25 72 90q0 76 -185 129q-70 -2 -227 -30l-90 -17l-98 -16q6 43 6 90q0 88 -127 166q264 90 286 115q31 29 31 55q0 82 -100 182q-47 53 -92 53q-61 0 -62 -24q0 -33 12 -80q-190 -156 -448 -281 q-104 -49 -160 -67q-41 -12 -41 -41q0 -31 54 -31q139 0 366 64q0 -61 57 -76l-4 -150q-237 -36 -544 -106q-113 37 -131 37q-37 0 -37 -39z" />
<glyph unicode="q" d="M303 719q0 39 37 39q16 0 131 -37q307 70 545 106l4 150q-57 15 -57 76q-227 -63 -367 -64q-53 0 -53 31q0 29 41 41q55 18 159 67q258 125 449 281q-12 47 -12 80q0 24 56 24h5q45 0 92 -53q100 -100 101 -182q0 -27 -31 -55q-23 -25 -287 -115q127 -78 127 -166 q0 -47 -6 -90l98 16l90 17q156 29 228 30q184 -51 184 -129q0 -66 -72 -90q-49 -14 -100 -14l-436 4q-39 -303 -101 -422q-29 -61 -86 -119q160 -117 269 -165l45 -17q47 -23 49 -22q6 -2 18.5 -20.5t12.5 -22.5q-4 -16 -33 -25q-14 -6 -33 -6q-57 0 -229 80 q-113 51 -158 84l-41 28q-237 -165 -347 -165h-1q-31 0 -31 26q0 18 35 41q70 47 141 117q41 41 68 76l-98 67q-37 18 -43 35q-4 10 -4 35q0 39 18 94q6 18 26.5 26.5t36.5 8.5q12 -4 15.5 -9t3.5 -22q82 -82 127 -121q100 176 119 394q-152 -33 -263 -89q-111 -45 -172 -45 q-63 0 -231 103q-39 33 -39 88z" />
<glyph unicode="r" d="M303 719q0 -55 39 -88q168 -102 231 -103q61 0 172 45q111 55 263 89q-29 -344 -269 -584q-70 -72 -141 -117q-35 -23 -35 -41q0 -26 29 -26h2q117 0 373 182q117 94 161 188q61 119 101 422l436 -4q51 0 100 14q72 25 72 90q0 78 -184 129q-72 -2 -228 -30l-90 -17 l-98 -16q6 43 6 90q0 88 -127 166q264 90 287 115q31 29 31 55q0 82 -101 182q-47 53 -92 53q-61 0 -61 -24q0 -33 12 -80q-190 -156 -449 -281q-104 -49 -159 -67q-41 -12 -41 -41q0 -31 53 -31q139 0 367 64q0 -61 57 -76l-4 -150q-238 -36 -545 -106q-115 37 -131 37 q-37 0 -37 -39zM1618 1272q0 55 27.5 100t78.5 72q44 22 93 22q53 0 99 -27.5t71 -78.5q23 -43 22 -94q0 -53 -27.5 -99.5t-76.5 -72.5q-45 -25 -95 -25q-53 0 -98 28.5t-72 80.5q-23 43 -22 94zM1726 1268q0 -37 26 -62.5t63 -25.5q35 0 61.5 25.5t26.5 64.5q0 61 -64 84 q-17 4 -27 4q-35 0 -60.5 -24.5t-25.5 -65.5z" />
<glyph unicode="s" d="M303 719q0 -55 39 -88q168 -102 231 -103q61 0 172 45q111 55 263 89q-29 -344 -269 -584q-70 -72 -141 -117q-35 -23 -35 -41q0 -27 31 -26q117 0 373 182q117 94 161 188q61 119 101 422l436 -4q51 0 100 14q72 25 72 90q0 78 -184 129q-72 -2 -228 -30l-90 -17 l-98 -16q6 43 6 90q0 88 -127 166q264 90 287 115q31 29 31 55q0 82 -101 182q-47 53 -92 53q-61 0 -61 -24q0 -33 12 -80q-190 -156 -449 -281q-104 -49 -159 -67q-41 -12 -41 -41q0 -31 53 -31q139 0 367 64q0 -61 57 -76l-4 -150q-238 -36 -545 -106q-115 37 -131 37 q-37 0 -37 -39zM1122 -193q41 0 129 52q53 33 143.5 106.5t143.5 138.5q53 -55 104 -104q23 -23 58 -23q57 0 57 52q0 53 -39 110q-43 51 -84 76q76 96 142 168q35 35 34 49q0 49 -65 125q-18 18 -43 18q-31 0 -41 -6q-14 -6 -14 -16q0 -12 22 -61q-61 -113 -139 -213 q-150 59 -201 59q-53 0 -53 -27q0 -14 14 -20q109 -55 168 -113q-86 -96 -266 -246l-41 -30q-45 -37 -49 -41q-8 -3 -18 -19q-9 -13 -9 -20q0 -14 47 -15zM1618 1272q0 55 27.5 100t78.5 72q44 22 93 22q53 0 99 -27.5t71 -78.5q23 -43 22 -94q0 -53 -27.5 -99.5 t-76.5 -72.5q-45 -25 -95 -25q-53 0 -98 28.5t-72 80.5q-23 43 -22 94zM1726 1268q0 -37 26 -62.5t63 -25.5q35 0 61.5 25.5t26.5 64.5q0 61 -64 84q-17 4 -27 4q-35 0 -60.5 -24.5t-25.5 -65.5z" />
<glyph unicode="t" d="M303 719q0 39 37 39q16 0 131 -37q307 70 545 106l4 150q-57 15 -57 76q-227 -63 -367 -64q-53 0 -53 31q0 29 41 41q55 18 159 67q258 125 449 281q-12 47 -12 80q0 24 56 24h5q45 0 92 -53q100 -100 101 -182q0 -27 -31 -55q-23 -25 -287 -115q127 -78 127 -166 q0 -47 -6 -90l98 16l90 17q156 29 228 30q184 -51 184 -129q0 -66 -72 -90q-49 -14 -100 -14l-436 4q-39 -303 -101 -422q-29 -61 -86 -119q160 -117 269 -165l45 -17q47 -23 49 -22q6 -2 18.5 -20.5t12.5 -22.5q-4 -16 -33 -25q-14 -6 -33 -6q-57 0 -229 80 q-113 51 -158 84l-41 28q-237 -165 -347 -165h-1q-31 0 -31 26q0 18 35 41q70 47 141 117q41 41 68 76l-98 67q-37 18 -43 35q-4 10 -4 35q0 39 18 94q6 18 26.5 26.5t36.5 8.5q12 -4 15.5 -9t3.5 -22q82 -82 127 -121q100 176 119 394q-152 -33 -263 -89q-111 -45 -172 -45 q-63 0 -231 103q-39 33 -39 88zM1618 1272q0 55 27.5 100t78.5 72q41 22 89 22h4q53 0 99 -27.5t71 -78.5q22 -43 22 -94q0 -53 -27.5 -99.5t-76.5 -72.5q-45 -25 -95 -25q-53 0 -98 28.5t-72 80.5q-23 43 -22 94zM1726 1268q0 -37 26 -62.5t63 -25.5q29 0 52 17t31 46 q5 17 5 27q0 61 -64 84q-16 4 -27 4q-35 0 -60.5 -24.5t-25.5 -65.5z" />
<glyph unicode="u" d="M33 -248q6 -14 47 -14q39 0 129 53q53 31 143 104.5t142 139.5l106 -105q23 -23 57 -22q55 0 56 51q0 53 -37 111q-43 53 -84 77q76 96 141 168q35 31 35 50q0 51 -66 122q-18 18 -43 19q-29 0 -41 -4q-14 -8 -14 -19q0 -12 23 -61q-61 -113 -140 -213q-147 61 -200 61 q-55 0 -56 -26q0 -14 15 -21q111 -55 170 -114q-86 -96 -266 -246q-83 -62 -91 -70q-8 -5 -19 -21q-8 -11 -8 -17q0 -2 1 -3zM498 715q0 -55 39 -88q168 -102 231 -103q61 0 172 45q111 55 262 88q-29 -344 -268 -583q-72 -72 -141 -117q-35 -23 -35 -41q0 -27 30 -27 q117 0 373 183q117 94 162 188q61 119 100 422l437 -4q51 0 100 14q72 25 72 90q0 76 -185 129q-70 -2 -227 -30l-90 -17l-98 -16q6 43 6 90q0 88 -127 166q264 90 286 115q31 29 31 55q0 82 -100 182q-47 53 -92 53q-61 0 -62 -24q0 -33 12 -80q-190 -156 -448 -281 q-104 -49 -160 -67q-41 -12 -41 -41q0 -31 54 -31q139 0 366 64q0 -61 57 -76l-4 -150q-237 -36 -544 -106q-113 37 -131 37q-37 0 -37 -39zM1683 1280q0 55 28 100t79 72q43 23 92 23q53 0 99.5 -28t70.5 -79q23 -43 23 -94q0 -53 -28 -99.5t-77 -72.5q-45 -25 -94 -25 q-53 0 -98 29t-72 80q-23 43 -23 94zM1792 1276q0 -37 25.5 -62.5t62.5 -25.5q35 0 61.5 25.5t26.5 64.5q0 61 -63 84q-17 4 -27 4q-35 0 -60.5 -24.5t-25.5 -65.5z" />
<glyph unicode="v" d="M70 936q0 12 16 22q158 121 244 316q-68 -18 -101 -19q-25 0 -61.5 31t-36.5 45t16 15q12 0 37 -11q113 23 181 33q31 90 41 150q-18 18 -19 28q0 29 43 29q29 0 65.5 -29.5t36.5 -58.5q0 -16 -43 -94q98 10 158 18q31 10 37 10q35 0 68.5 -35.5t33.5 -62.5 q0 -25 -32 -57q-45 -127 -68 -181q-100 -186 -213 -186q-55 0 -55 70q-35 61 -53 133l4 2q50 -45 120 -82q37 23 99 135q55 123 63 182q-117 -10 -205 -32q-70 -168 -139 -244t-176 -125q-31 -14 -47 -14q-14 0 -14 12zM530 715q0 -55 39 -88q168 -102 232 -103q61 0 172 45 q111 55 262 88q-29 -344 -268 -583q-70 -72 -142 -117q-35 -23 -34 -41q0 -27 30 -27q117 0 373 183q117 94 162 188q61 119 100 422l436 -4q51 0 101 14q72 25 71 90q0 76 -184 129q-70 -2 -227 -30l-90 -17l-99 -16q6 43 6 90q0 88 -127 166q264 90 287 115q31 29 31 55 q0 82 -100 182q-47 53 -93 53q-61 0 -61 -24q0 -33 12 -80q-190 -156 -448 -281q-104 -49 -160 -67q-41 -12 -41 -41q0 -31 53 -31q139 0 367 64q0 -61 57 -76l-4 -150q-238 -36 -545 -106q-115 37 -131 37q-37 0 -37 -39z" />
<glyph unicode="w" d="M428 59q0 -55 53 -55q33 0 117 59q49 49 100 121q92 121 207 656q16 121 17 161q0 47 -31 91q-47 68 -92 99.5t-105 31.5q-47 0 -65 -19q-12 -27 -13 -51q0 -31 78 -104q-10 -317 -67 -547q-29 -121 -76 -226.5t-88 -162.5q-35 -47 -35 -54zM1038 1364q0 23 25 35 q31 10 49 10q53 0 98 -31q82 -59 129 -131q29 -45 29 -98q0 -61 -39 -223q-49 -352 -61 -572q156 76 316.5 195t277.5 254q72 98 92 98q25 0 24 -29q0 -133 -157 -368q-68 -113 -500 -443q-49 -88 -107 -88q-33 0 -67 43q-84 96 -84 150q0 20 22 110q20 444 21 998 q-68 59 -68 90z" />
<glyph unicode="x" d="M379 1073q0 -41 53 -151q8 -74 12 -146q-29 -53 -28 -98q0 -47 55 -125q49 -57 109 -57q90 0 90 172q0 102 -52 262q88 -25 150 -25q61 0 147 27q256 57 537 72q-113 -399 -285 -625q-199 -233 -415 -383q-39 -25 -39 -47q0 -27 37 -27q84 0 337 141q348 190 599 803 q83 31 83 97q0 37 -38.5 89t-90 93t-79.5 41q-49 0 -119 -39q-133 -4 -287 -21q18 127 19 195q0 84 -80 152q-77 75 -132 75h-1q-37 0 -66 -27.5t-29 -60.5q0 -31 76 -88l12 -158l-4 -116q-193 -27 -399 -84q-84 86 -135 86q-37 0 -37 -27z" />
<glyph unicode="y" d="M379 1073q0 -41 53 -151q8 -74 12 -146q-29 -53 -28 -98q0 -47 55 -125q49 -57 109 -57q90 0 90 172q0 102 -52 262q88 -25 150 -25q61 0 147 27q256 57 537 72q2 -47 2 -136q0 -227 -26.5 -365t-94.5 -227q-59 -68 -120.5 -117.5t-159.5 -111.5q-96 -57 -133 -84 q-39 -25 -39 -47q0 -27 37 -27q41 0 165.5 54.5t255.5 128.5q109 57 172.5 149t101.5 239.5t73 405.5q83 31 83 97q0 37 -38.5 89t-90 93t-79.5 41q-49 0 -119 -39q-133 -4 -287 -21q18 127 19 195q0 84 -80 152q-77 75 -132 75h-1q-37 0 -66 -27.5t-29 -60.5q0 -31 76 -88 l12 -158l-4 -116q-193 -27 -399 -84q-84 86 -135 86q-37 0 -37 -27zM754 324l6 6l28 4q250 52 422 72q25 10 37 28q113 -27 113 -59q0 -23 -47 -23q-74 4 -105 4q-137 0 -399 -65q-37 16 -55 33zM887 782l6 6q131 28 203 48q16 12 24 22q88 -8 88 -43q0 -12 -30 -16 q-92 -2 -252 -43q-25 12 -39 26zM901 573l4 7q127 27 197 47q14 6 20 18q78 -16 78 -43q0 -10 -29 -16q-98 0 -225 -37q-35 14 -45 24z" />
<glyph unicode="z" d="M27 1081q0 -41 53 -151q8 -74 12 -146q-29 -53 -29 -98q0 -47 56 -125q49 -57 108 -57q90 0 90 172q0 102 -51 262q88 -25 150 -25q61 0 147 27q256 57 537 72q-113 -399 -285 -625q-199 -233 -416 -383q-39 -25 -39 -47q0 -27 37 -27q84 0 338 142q348 190 598 802 q84 31 84 99q0 35 -39 87t-90 93t-80 41q-49 0 -118 -39q-133 -4 -287 -20q18 127 18 194q0 84 -80 152q-77 75 -132 75h-1q-37 0 -65.5 -27.5t-28.5 -60.5q0 -31 76 -88l12 -157q4 -18 2 -49l-6 -68q-193 -27 -399 -84q-82 86 -136 86q-37 0 -36 -27zM1507 1032l2 6 q232 48 412 60q33 20 41 20q94 -27 94 -61q0 -14 -20 -17q-76 10 -133 11q-166 0 -344 -47q-29 6 -52 28zM1518 283l4 6l26 2q217 41 379 61q16 4 35 23q100 -20 100 -49q0 -18 -43 -19q-33 2 -94 2q-127 0 -358 -55q-37 18 -49 29zM1634 1325l2 6q98 19 172 37q18 20 25 21 q70 -18 70 -39q0 -12 -17 -17q-102 -2 -209 -28q-29 12 -43 20zM1636 668l6 6q68 12 183 39q12 8 22 18q78 -10 78 -37q0 -10 -27 -12q-82 -2 -227 -37q-27 16 -35 23zM1649 494l4 4q80 16 176 41q12 2 20 14q68 -12 68 -37q0 -8 -25 -12q-88 -2 -202 -31q-29 8 -41 21z" />
<glyph unicode="{" d="M379 1073q0 27 37 27q51 0 135 -86q207 57 399 84l4 116l-12 158q-76 57 -76 88q0 33 29 60.5t66 27.5q55 0 133 -75q80 -68 80 -152q0 -70 -19 -195q154 16 287 21q70 39 119 39q29 0 80 -41t89.5 -93.5t38.5 -86.5q0 -68 -83 -99q-53 -131 -105 -229q8 -12 21 -37 q41 -82 40 -166q0 -92 -48 -171t-134 -126q-76 -41 -160 -41q-66 0 -122 25q-51 -37 -91 -58q-254 -141 -337 -141q-37 0 -37 27q0 23 39 47q143 98 288 244q-14 18 -26 45q-41 82 -41 166q0 92 48 170.5t134 126.5q76 41 160 40q33 0 65 -6q41 115 72 222 q-281 -14 -537 -72q-86 -27 -147 -27t-150 25q51 -160 52 -262q0 -172 -90 -172q-59 0 -109 57q-55 78 -55 125q0 45 28 98q-4 72 -12 146q-53 111 -53 151zM1061 440q0 -78 37 -139l69 78q102 133 185 332q-29 4 -41 4q-80 0 -146.5 -52.5t-91.5 -138.5q-12 -43 -12 -84z M1251 180q35 -10 66 -10q80 0 145.5 52t89.5 138q13 41 13 82q0 57 -25 117q-133 -236 -289 -379z" />
<glyph unicode="}" d="M467 1368q0 20 10 31q41 23 92 22q47 0 99.5 -43t89.5 -101t37 -97q0 -41 -15 -99q-31 -172 -37 -217q287 68 494 160q116 57 190 57q96 0 97 -106q0 -59 -86 -107q-106 -53 -267 -104q-162 -43 -309 -43q-49 0 -129 20q-18 -190 -18 -381q0 -45 14 -70.5t65.5 -39.5 t157.5 -14q190 0 369 32q82 76 145 76q70 0 174 -86q35 -35 35 -76q0 -117 -209 -133q-164 -23 -393 -22q-291 0 -416 71q-98 66 -112 197q-16 268 -17 975q-61 61 -61 98z" />
<glyph unicode="&#xa1;" d="M1155 948q0 14 6 21q27 16 58 16q29 0 60.5 -30.5t54 -70.5t22.5 -67q0 -31 -8 -69q-16 -94 -23 -152q176 47 301 111q76 41 115 41q59 0 59 -74q0 -41 -53 -76q-66 -39 -162 -74q-104 -29 -188 -28q-33 0 -78 14q-12 -125 -12 -268q0 -31 9 -48.5t39.5 -27.5t96.5 -10 q106 0 225 22q53 53 88 53q41 0 107 -59q20 -23 20 -53q0 -82 -127 -94q-102 -16 -239 -17q-178 0 -254 51q-61 47 -70 138q-8 156 -8 682q-39 41 -39 69z" />
<glyph unicode="&#xa2;" d="M467 1368q0 20 10 31q41 23 92 22q47 0 99.5 -43t89.5 -101t37 -97q0 -41 -15 -99q-31 -172 -37 -217q287 68 494 160q116 57 190 57q96 0 97 -106q0 -59 -86 -107q-106 -53 -267 -104q-162 -43 -309 -43q-49 0 -129 20q-18 -190 -18 -381q0 -45 14 -70.5t65.5 -39.5 t157.5 -14q190 0 369 32q82 76 145 76q70 0 174 -86q35 -35 35 -76q0 -117 -209 -133q-164 -23 -393 -22q-291 0 -416 71q-98 66 -112 197q-16 268 -17 975q-61 61 -61 98zM1546 698l2 4q47 0 70 -28q51 10 154 26v105q-1 29 -11 43q-14 20 -14 41l4 6q51 0 82 -51 q-4 -29 -4 -39l-4 -96l114 20q29 14 39 14q78 -29 78 -57q-12 -8 -22 -20q-37 -78 -56 -113q4 -12 4 -18q0 -8 -22 -9l-55 6q-53 0 -82 -4l-4 -176q-2 -39 -11 -116q-2 -25 -16 -25q-6 0 -14 27l-6 114v168q-80 -10 -115 -22q0 -31 -8 -31q-23 0 -37 33q-25 102 -45 168 q-18 23 -21 30zM1624 645q10 -51 29 -119q72 14 119 23v123q-99 -17 -148 -27zM1823 555q82 12 96 20l12 -4t15 -4q14 57 24 121q0 10 -8 10l-139 -18v-125z" />
<glyph unicode="&#xa3;" d="M178 741l2 7q51 0 70 -29l156 24v107q-5 33 -11 43q-16 23 -16 41l6 6q49 0 80 -53l-6 -37v-96l112 20l39 14q78 -29 78 -59q-14 -8 -22 -20l-56 -113q6 -8 6 -16q0 -10 -24 -11q-18 4 -63.5 5t-73.5 -1l-4 -178q-4 -78 -11 -116q-4 -23 -14 -23q-8 0 -16 27 q-4 61 -4 112v168q-84 -8 -115 -22q0 -29 -10 -29q-18 0 -37 33q-33 127 -45 168q-12 12 -21 28zM258 690q20 -96 27 -121q57 14 121 25v121zM455 598q41 8 59 10q27 4 39 10q16 -4 25 -8q16 59 24 123q0 8 -6 8q-47 -4 -137 -16zM750 1354q0 20 10 30q41 23 92 23 q47 0 99.5 -43t89 -101.5t36.5 -97.5q0 -41 -14 -98q-31 -172 -37 -217q287 68 494 160q83 37 120 49q31 10 62 10q104 0 104 -108q0 -59 -86 -107q-106 -53 -266 -104q-162 -43 -309 -43q-49 0 -129 20q-18 -190 -19 -381q0 -45 14.5 -70.5t65.5 -40t158 -14.5 q190 0 369 33q82 76 145 76q70 0 174 -86q35 -35 35 -76q0 -117 -209 -133q-164 -23 -393 -23q-291 0 -416 72q-98 66 -113 197q-16 268 -16 974q-61 61 -61 99z" />
<glyph unicode="&#xa4;" d="M266 1380q0 20 10 31q41 23 93 23q47 0 99 -43t89 -101.5t37 -97.5q0 -41 -14 -98q-31 -172 -37 -217q287 68 493 159q84 37 121 49q31 10 62 11q104 0 104 -109q0 -59 -86 -106q-106 -53 -266 -105q-162 -43 -309 -43q-49 0 -130 21q-18 -190 -18 -381q0 -45 14.5 -71 t65.5 -40t158 -14q190 0 368 33q82 76 146 75q70 0 174 -86q35 -35 35 -75q0 -117 -209 -134q-164 -23 -394 -22q-291 0 -415 72q-98 66 -113 196q-16 268 -16 975q-61 61 -62 98zM1219 436q6 -14 47 -14q39 0 129 53q51 29 141 103.5t145 140.5l105 -105q23 -23 57 -22 q57 0 58 53q0 51 -39 109q-43 53 -84 77q76 96 141 168q35 31 35 50q0 51 -66 122q-18 18 -43 19q-29 0 -41 -4q-14 -8 -14 -17q0 -14 22 -63q-63 -117 -139 -211q-150 59 -200 59q-53 0 -54 -26q0 -14 15 -21q111 -57 168 -114q-86 -96 -267 -246q-82 -62 -90 -70 q-8 -4 -18 -20.5t-8 -20.5z" />
<glyph unicode="&#xa5;" d="M467 1473q0 20 10 30q41 23 92 23q47 0 99.5 -43t89.5 -101.5t37 -97.5q0 -41 -15 -98q-31 -172 -37 -217q287 68 494 159q84 38 121 50q31 10 61 10q104 0 105 -109q0 -59 -86 -106q-106 -53 -267 -105q-162 -43 -309 -43q-49 0 -129 21q-18 -168 -18 -486 q0 -45 14 -70.5t65.5 -39.5t157.5 -14q190 0 369 32l70 13q86 12 116 20l25 2q10 0 43 -4q39 -8 69.5 -46t30.5 -71q0 -117 -209 -133q-164 -23 -393 -22q-291 0 -416 71q-98 66 -112 197q-16 283 -17 1079q-61 61 -61 99zM797 369l2 4q49 6 166 20q43 88 75 176 q-43 -6 -82 -16q-16 6 -40 20l2 7q47 4 133 16q27 74 39 123q-6 16 -19 31q-18 -2 -55 -11l-43 19l4 4l221 37q16 8 23 14q90 -10 90 -33q0 -12 -27 -12l-172 -10q33 -20 45 -51l-51 -103q43 8 71.5 13.5t47.5 9.5q4 2 26 14q70 -33 70 -47q0 -2 -10 -12q-57 -119 -78 -166 l121 8q18 8 33 18q106 -20 106 -49q0 -14 -25 -14l-210 4q-193 0 -414 -41q-23 8 -49 27zM1008 399q119 8 174 15q27 72 57 170q0 12 -16 12q-78 -11 -127 -21q-27 -57 -88 -176z" />
<glyph unicode="&#xa6;" d="M467 1473q0 20 10 30q41 23 92 23q47 0 99.5 -43t89.5 -101.5t37 -97.5q0 -41 -15 -98q-31 -172 -37 -217q287 68 494 159q84 38 121 50q31 10 61 10q104 0 105 -109q0 -59 -86 -106q-106 -53 -267 -105q-162 -43 -309 -43q-49 0 -129 21q-18 -168 -18 -486 q0 -45 14 -70.5t65.5 -39.5t157.5 -14q190 0 369 32l70 13q86 12 116 20l25 2q10 0 43 -4q39 -8 69.5 -46t30.5 -71q0 -117 -209 -133q-164 -23 -393 -22q-291 0 -416 71q-98 66 -112 197q-16 283 -17 1079q-61 61 -61 99zM797 369l2 4q49 6 166 20q43 88 75 176 q-43 -6 -82 -16q-16 6 -40 20l2 7q47 4 133 16q27 74 39 123q-6 16 -19 31q-18 -2 -55 -11l-43 19l4 4l221 37q16 8 23 14q90 -10 90 -33q0 -12 -27 -12l-172 -10q33 -20 45 -51l-51 -103q43 8 71.5 13.5t47.5 9.5q4 2 26 14q70 -33 70 -47q0 -2 -10 -12q-57 -119 -78 -166 l121 8q18 8 33 18q106 -20 106 -49q0 -14 -25 -14l-210 4q-193 0 -414 -41q-23 8 -49 27zM1008 399q119 8 174 15q27 72 57 170q0 12 -16 12q-78 -11 -127 -21q-27 -57 -88 -176zM1546 698l2 4q47 0 70 -28q51 10 154 26v105q-1 29 -11 43q-14 20 -14 41l4 6q51 0 82 -51 q-4 -29 -4 -39l-4 -96l114 20q29 14 39 14q78 -29 78 -57q-12 -8 -22 -20q-37 -78 -56 -113q4 -12 4 -18q0 -8 -22 -9l-55 6q-53 0 -82 -4l-4 -176q-2 -39 -11 -116q-2 -25 -16 -25q-6 0 -14 27l-6 114v168q-80 -10 -115 -22q0 -31 -8 -31q-23 0 -37 33q-25 102 -45 168 q-18 23 -21 30zM1624 645q10 -51 29 -119q72 14 119 23v123q-99 -17 -148 -27zM1823 555q82 12 96 20l12 -4t15 -4q14 57 24 121q0 10 -8 10l-139 -18v-125z" />
<glyph unicode="&#xa7;" d="M180 1479q0 20 10 30q41 23 93 23q47 0 99 -43t89 -101.5t37 -97.5q0 -41 -14 -98q-31 -172 -37 -217q287 68 493 160q84 37 121 49q31 10 62 10q104 0 104 -109q0 -59 -86 -106q-106 -53 -266 -105q-164 -43 -310 -43q-49 0 -129 21q-18 -168 -18 -485q0 -45 14.5 -71 t65.5 -40t158 -14q190 0 368 32l70 13q86 12 117 20l24 2q10 0 43 -4q39 -8 70 -46t31 -71q0 -117 -209 -133q-164 -23 -394 -22q-291 0 -415 71q-98 66 -113 197q-16 283 -16 1079q-61 61 -62 99zM510 375l2 4q49 6 166 20q43 88 76 176q-43 -6 -82 -16q-16 6 -41 21l2 6 q47 4 133 16q27 74 39 123q-6 16 -19 31q-18 -2 -55 -11l-43 19l4 4l221 35q25 18 23 16q90 -10 90 -33q0 -12 -27 -12l-172 -10q33 -20 45 -51l-51 -103q43 8 72 13.5t47 9.5q10 2 27 12q70 -33 69 -45q0 -2 -10 -12q-57 -119 -78 -166l121 8q18 8 33 19q106 -20 106 -50 q0 -14 -24 -14l-211 4q-193 0 -414 -41q-29 10 -49 27zM721 403l174 17q27 72 57 170q0 12 -16 12q-78 -10 -127 -20l-66 -133zM1292 389q6 -14 47 -14q39 0 129 53q51 29 141.5 103.5t145.5 140.5l105 -105q23 -23 57 -22q57 0 57 53q0 51 -39 109q-43 53 -84 77 q76 96 142 168q35 31 35 49q0 51 -66 123q-18 18 -43 19q-29 0 -41 -4q-14 -8 -14 -17q0 -14 22 -63q-61 -113 -139 -213q-147 61 -201 61q-53 0 -53 -26q0 -14 14 -21q111 -57 168 -115q-86 -96 -266 -245q-76 -58 -90 -70q-8 -4 -18.5 -20.5t-8.5 -20.5z" />
<glyph unicode="&#xa8;" d="M467 1368q0 20 10 31q41 23 92 22q47 0 99.5 -43t89.5 -101t37 -97q0 -41 -15 -99q-31 -172 -37 -217q186 43 324 92q-43 57 -47 64q-23 31 -53 70q-29 33 -29 47q0 49 55 116q16 18 35 19q23 0 35 -4q14 -8 14 -19q0 -6 -6 -16q51 -111 123 -223q154 74 227 73 q14 0 21 -2q82 -14 82 -106q0 -53 -49.5 -85t-145.5 -71q74 -96 133 -147l37 -31l41 -37q4 -4 10 -24q4 -20 4 -23q0 -16 -38 -16q-35 0 -109 49q-49 31 -199 184q2 2 -18 -4l-19 -6q-162 -43 -309 -43q-49 0 -129 20q-18 -190 -18 -381q0 -45 14 -70.5t65.5 -39.5 t157.5 -14q190 0 369 32q82 76 145 76q70 0 174 -86q35 -35 35 -76q0 -117 -209 -133q-164 -23 -393 -22q-291 0 -416 71q-98 66 -112 197q-16 268 -17 975q-61 61 -61 98z" />
<glyph unicode="&#xa9;" d="M467 1368q0 20 10 31q41 23 92 22q47 0 99.5 -43t89.5 -101t37 -97q0 -41 -15 -99q-31 -172 -37 -217q287 68 494 160q116 57 190 57q96 0 97 -106q0 -59 -86 -107q-106 -53 -267 -104q-162 -43 -309 -43q-49 0 -129 20q-18 -190 -18 -381q0 -45 14 -70.5t65.5 -39.5 t157.5 -14q190 0 369 32q82 76 145 76q70 0 174 -86q35 -35 35 -76q0 -117 -209 -133q-164 -23 -393 -22q-291 0 -416 71q-98 66 -112 197q-16 268 -17 975q-61 61 -61 98zM1618 1272q0 55 27.5 100t78.5 72q44 22 93 22q53 0 99 -27.5t71 -78.5q23 -43 22 -94 q0 -53 -27.5 -99.5t-76.5 -72.5q-45 -25 -95 -25q-53 0 -98 28.5t-72 80.5q-23 43 -22 94zM1726 1268q0 -37 26 -62.5t63 -25.5q35 0 61.5 25.5t26.5 64.5q0 61 -64 84q-17 4 -27 4q-35 0 -60.5 -24.5t-25.5 -65.5z" />
<glyph unicode="&#xaa;" d="M1049 950q0 16 6 23q27 16 57 16q29 0 60.5 -29.5t54 -71.5t22.5 -69q0 -18 -10 -69q-20 -131 -22 -152q166 43 301 113q75 41 116 41q59 0 60 -76q0 -43 -54 -74q-66 -39 -161 -74q-100 -31 -189 -30q-31 0 -80 14q-10 -127 -10 -268q0 -31 9.5 -48.5t41 -27.5t95.5 -10 q113 0 223 24q51 51 90 51q41 0 106 -59q20 -20 21 -53q0 -82 -127 -92q-102 -16 -240 -17q-180 0 -254 49q-61 47 -69 140q-10 195 -11 682q-37 43 -36 67zM1653 1063q0 113 104 172q47 25 94 25q53 0 97.5 -29t70.5 -80q23 -45 23 -96q0 -113 -105 -172q-43 -23 -94 -23 q-53 0 -97 27.5t-71 79.5q-23 45 -22 96zM1759 1059q0 -31 16.5 -54.5t45.5 -31.5q16 -4 26 -4q35 0 61.5 25.5t26.5 64.5q0 66 -61 84q-11 4 -29 4q-27 0 -49 -16.5t-33 -45.5q-4 -16 -4 -26z" />
<glyph unicode="&#xab;" d="M467 1368q0 20 10 31q41 23 92 22q47 0 99.5 -43t89.5 -101t37 -97q0 -41 -15 -99q-31 -172 -37 -217q287 68 494 160q116 57 190 57q96 0 97 -106q0 -59 -86 -107q-106 -53 -267 -104q-162 -43 -309 -43q-49 0 -129 20q-18 -190 -18 -381q0 -45 14 -70.5t65.5 -39.5 t157.5 -14q190 0 369 32q82 76 145 76q70 0 174 -86q35 -35 35 -76q0 -117 -209 -133q-164 -23 -393 -22q-291 0 -416 71q-98 66 -112 197q-16 268 -17 975q-61 61 -61 98zM1546 698l2 4q47 0 70 -28q51 10 154 26v105q-1 29 -11 43q-14 20 -14 41l4 6q51 0 82 -51 q-4 -29 -4 -39l-4 -96l114 20q29 14 39 14q78 -29 78 -57q-12 -8 -22 -20q-37 -78 -56 -113q4 -12 4 -18q0 -8 -22 -9l-55 6q-53 0 -82 -4l-4 -176q-2 -39 -11 -116q-2 -25 -16 -25q-6 0 -14 27l-6 114v168q-80 -10 -115 -22q0 -31 -8 -31q-23 0 -37 33q-25 102 -45 168 q-18 23 -21 30zM1618 1272q0 55 27.5 100t78.5 72q44 22 93 22q53 0 99 -27.5t71 -78.5q23 -43 22 -94q0 -53 -27.5 -99.5t-76.5 -72.5q-45 -25 -95 -25q-53 0 -98 28.5t-72 80.5q-23 43 -22 94zM1624 645q10 -51 29 -119q72 14 119 23v123q-99 -17 -148 -27zM1726 1268 q0 -37 26 -62.5t63 -25.5q35 0 61.5 25.5t26.5 64.5q0 61 -64 84q-17 4 -27 4q-35 0 -60.5 -24.5t-25.5 -65.5zM1823 555q82 12 96 20l12 -4t15 -4q14 57 24 121q0 10 -8 10l-139 -18v-125z" />
<glyph unicode="&#xac;" d="M178 741l2 7q51 0 70 -29l156 24v107q-5 33 -11 43q-16 23 -16 41l6 6q49 0 80 -53l-6 -37v-96l112 20l39 14q78 -29 78 -59q-14 -8 -22 -20l-56 -113q6 -8 6 -16q0 -10 -24 -11q-18 4 -63.5 5t-73.5 -1l-4 -178q-4 -78 -11 -116q-4 -23 -14 -23q-8 0 -16 27 q-4 61 -4 112v168q-84 -8 -115 -22q0 -29 -10 -29q-18 0 -37 33q-33 127 -45 168q-12 12 -21 28zM258 690q20 -96 27 -121q57 14 121 25v121zM455 598q41 8 59 10q27 4 39 10q16 -4 25 -8q16 59 24 123q0 8 -6 8q-47 -4 -137 -16zM750 1354q0 20 10 30q41 23 92 23 q47 0 99.5 -43t89 -101.5t36.5 -97.5q0 -41 -14 -98q-31 -172 -37 -217q287 68 494 160q83 37 120 49q31 10 62 10q104 0 104 -108q0 -59 -86 -107q-106 -53 -266 -104q-162 -43 -309 -43q-49 0 -129 20q-18 -190 -19 -381q0 -45 14.5 -70.5t65.5 -40t158 -14.5 q190 0 369 33q82 76 145 76q70 0 174 -86q35 -35 35 -76q0 -117 -209 -133q-164 -23 -393 -23q-291 0 -416 72q-98 66 -113 197q-16 268 -16 974q-61 61 -61 99zM1616 1376q0 113 106 172q48 25 95 25q53 0 97 -28.5t71 -80.5q23 -45 22 -96q0 -113 -104 -170 q-45 -25 -97 -24q-53 0 -97 27.5t-71 78.5q-23 45 -22 96zM1724 1370q0 -29 17.5 -52.5t44.5 -31.5q16 -4 26 -4q61 0 84 64q4 16 5 26q0 29 -17.5 52.5t-46.5 31.5q-9 4 -27 4q-27 0 -50 -17.5t-31 -43.5q-4 -10 -5 -29z" />
<glyph unicode="&#xad;" d="M266 1380q0 20 10 31q41 23 93 23q47 0 99 -43t89 -101.5t37 -97.5q0 -41 -14 -98q-31 -172 -37 -217q287 68 493 159q84 37 121 49q31 10 62 11q104 0 104 -109q0 -59 -86 -106q-106 -53 -266 -105q-162 -43 -309 -43q-49 0 -130 21q-18 -190 -18 -381q0 -45 14.5 -71 t65.5 -40t158 -14q190 0 368 33q82 76 146 75q70 0 174 -86q35 -35 35 -75q0 -117 -209 -134q-164 -23 -394 -22q-291 0 -415 72q-98 66 -113 196q-16 268 -16 975q-61 61 -62 98zM1219 436q6 -14 47 -14q39 0 129 53q51 29 141 103.5t145 140.5l105 -105q23 -23 57 -22 q57 0 58 53q0 51 -39 109q-43 53 -84 77q76 96 141 168q35 31 35 50q0 51 -66 122q-18 18 -43 19q-29 0 -41 -4q-14 -8 -14 -17q0 -14 22 -63q-63 -117 -139 -211q-150 59 -200 59q-53 0 -54 -26q0 -14 15 -21q111 -57 168 -114q-86 -96 -267 -246q-82 -62 -90 -70 q-8 -4 -18 -20.5t-8 -20.5zM1307 1370q0 55 27.5 100.5t78.5 71.5q47 25 94 25q51 0 96.5 -29t71.5 -80q23 -43 23 -94q0 -53 -28 -99t-77 -73q-45 -25 -94 -25q-53 0 -98 29t-72 80q-23 43 -22 94zM1415 1366q0 -37 25.5 -62.5t60.5 -25.5q37 0 63.5 24.5t26.5 65.5 q0 35 -25.5 61.5t-64.5 26.5q-35 0 -60.5 -24.5t-25.5 -65.5z" />
<glyph unicode="&#xae;" d="M86 1378q0 20 10 31q41 23 92 23q47 0 99.5 -43t89.5 -101.5t37 -97.5q0 -41 -15 -98q-31 -172 -37 -218q287 68 494 160q84 37 121 49q31 10 61 11q104 0 105 -109q0 -59 -86 -106q-106 -53 -266 -105q-164 -43 -310 -43q-49 0 -129 21q-18 -190 -18 -381q0 -45 14 -71 t65.5 -40t157.5 -14q190 0 369 33q82 76 145 75q70 0 175 -86q35 -35 34 -75q0 -117 -209 -134q-164 -23 -393 -22q-291 0 -416 72q-98 66 -112 196q-16 268 -17 975q-61 61 -61 98zM1212 510q0 20 19 20q12 0 29 -16l28 18q-16 62 -16 95l6 141l4 72q-20 55 -20 80 q0 16 8 16q16 0 33 -23q27 18 122 52q23 16 39 16q25 0 57.5 -28.5t32.5 -51.5q0 -18 -16 -45q-10 -86 -10 -106l4 -113q0 -86 -16.5 -143.5t-53.5 -57.5q-25 0 -28 43l-23 60q-119 -119 -139 -119q-14 0 -37 31q-23 39 -23 59zM1315 901q29 -35 32 -50t3 -81q53 27 77 27 l19 -4v118q-70 -18 -82 -18q-18 0 -49 8zM1346 610q0 -25 4 -41l98 72v102l-8 -4l-94 -28v-78v-23zM1423 557q11 -10 25 -12v39zM1495 369q0 16 18 61q8 47 23 86q2 -30 12 -53q78 137 78 440q-31 35 -31 55q4 18 15 19q6 0 22 -16q33 27 183 55q29 12 45 12q23 0 60.5 -37 t37.5 -61q0 -23 -21 -43q-25 -119 -24 -193q0 -70 14 -192q6 -57 6 -109q0 -39 -26.5 -80t-55.5 -41q-27 0 -36 41q-102 88 -156 219q47 -51 98 -75q29 -8 74 -19q-2 39 -2 156q-14 -2 -43 -2q-66 0 -113 45q-31 -178 -86 -252q-41 -41 -71 -41q-20 0 -21 25zM1675 932 q33 -25 33 -64l-4 -45q70 39 98 39q6 0 31 -10l4 106q-113 -6 -162 -26zM1686 696q6 -4 43.5 -11t56.5 -9h18q10 -2 25 -2v119l-14 -7l-119 -12z" />
<glyph unicode="&#xaf;" d="M455 1251q0 -37 61 -98q0 -389 29 -858q14 -131 112 -197q125 -72 416 -71q229 0 393 22q209 16 209 133q0 41 -35 76q-27 35 -118 35q-23 0 -52 -4q-25 -4 -34 -4q-10 0 -27 4q10 4 -49 258q-59 252 -49 258q68 35 140.5 90t72.5 80q0 106 -97 106q-74 0 -190 -57 q-207 -92 -494 -160l9 23q6 16 18 79.5t12 96.5q0 39 -36.5 97.5t-89 101.5t-99.5 43q-51 0 -92 -23q-10 -10 -10 -31zM715 360q0 190 18 381q80 -20 129 -20h51h50q51 0 92 10q35 6 108 29q-10 -4 49 -254q55 -250 48 -258q-80 -14 -150 -15q-43 0 -76 3h-82 q-106 0 -157.5 14t-65.5 39.5t-14 70.5z" />
<glyph unicode="&#xb1;" d="M584 1362q0 31 39 31q61 0 133 -84q68 -70 67 -174q0 -43 -22 -246q109 137 207 315l10 -4q-62 -258 -191 -555q-6 -96 -28.5 -130t-71.5 -34q-41 0 -84 66q-55 90 -55 182t14 191q25 176 25 319q-43 94 -43 123zM815 -86q0 23 35 51q121 115 221 234q172 227 217 518 q18 170 19 391q0 125 -13 207q-92 94 -92 127q0 20 21 33q41 27 120 26q37 0 90.5 -47t92.5 -109.5t39 -105.5q0 -33 -23 -123q-23 -709 -227 -919q-135 -152 -281 -232q-154 -74 -196 -74q-23 0 -23 23z" />
<glyph unicode="&#xb2;" d="M584 1362q0 31 39 31q61 0 133 -84q68 -70 67 -174q0 -43 -22 -246q109 137 207 315l10 -4q-62 -258 -191 -555q-6 -96 -28.5 -130t-71.5 -34q-41 0 -84 66q-55 90 -55 182t14 191q25 176 25 319q-43 94 -43 123zM815 -86q0 -23 23 -23q43 0 196 74q145 80 281 232l28 32 q143 -109 197 -133q82 -35 115 -28q35 4 37 18v2q0 6 -9.5 24.5t-15.5 20.5l-45 31l-41 22q-51 33 -176 146q121 256 137 784q23 90 23 123q0 43 -39 105.5t-92.5 109.5t-90.5 47q-80 0 -120 -26q-20 -12 -21 -33q0 -33 92 -127q12 -82 13 -207q0 -221 -19 -391 q-14 -100 -53 -211q-82 98 -131 170v12q0 16 -14 23q-47 6 -68 -27q-37 -63 -37 -109q0 -10 2 -16q4 -16 37 -41l156 -147q-43 -84 -109 -172q-102 -121 -221 -234q-35 -29 -35 -51z" />
<glyph unicode="&#xb3;" d="M424 1331q0 31 39 31q61 0 133 -84q68 -70 68 -174q0 -43 -23 -246q109 137 207 316l10 -5q-61 -258 -190 -555q-6 -96 -29 -129.5t-72 -33.5q-41 0 -84 65q-55 88 -55 182q0 92 14 191q25 176 25 319q-43 96 -43 123zM655 -117q0 23 35 51q121 115 221 234 q172 227 217 518q18 170 19 391q0 125 -12 207q-92 96 -93 127q0 20 21 33q41 27 121 26q37 0 90 -47t92 -109.5t39 -105.5q0 -33 -23 -123q-23 -709 -227 -919q-135 -152 -281 -232q-154 -74 -196 -73q-23 0 -23 22zM1219 -152q6 -12 47 -12t129 51q53 33 143 107t143 139 q51 -55 105 -104q23 -23 57 -23q57 0 58 51q0 53 -39 111q-43 51 -84 76q76 96 141 168q35 35 35 49q0 49 -66 125q-16 18 -43 18q-33 0 -41 -6q-14 -6 -14 -16q0 -12 22 -62q-61 -113 -139 -213q-150 59 -200 60q-53 0 -54 -27q0 -14 15 -21q109 -55 168 -112 q-86 -96 -267 -246l-41 -31q-45 -37 -49 -41q-8 -4 -18 -19t-8 -22z" />
<glyph unicode="&#xb4;" d="M457 1356q0 31 39 30q61 0 133 -83q68 -70 67 -175q0 -43 -22 -245q109 137 207 315l10 -4q-62 -258 -191 -555q-6 -96 -28.5 -130t-71.5 -34q-41 0 -84 66q-55 90 -55 182t14 190q25 176 25 320q-43 94 -43 123zM688 -92q0 23 35 51q121 115 221 234q172 227 217 518 q18 170 19 391q0 125 -13 207q-92 96 -92 127q0 20 21 32q41 27 121 27q37 0 90 -47t92 -109.5t39 -105.5q0 -33 -23 -123q-23 -709 -227 -920q-135 -152 -281 -231q-154 -74 -196 -74q-23 0 -23 23zM1442 336l2 4q49 0 67 -29q43 8 156 27v104q0 29 -10 43q-16 23 -17 41 l7 6q49 0 82 -51q-4 -25 -9 -39v-96q20 4 115 21q29 14 37 14q80 -27 80 -57q-12 -8 -23 -21l-57 -113q6 -8 6 -18q0 -8 -23 -8l-57 6q-51 0 -80 -4l-6 -176q-4 -78 -10 -117q-2 -25 -14 -25q-8 0 -17 27q-4 61 -4 115v168q-80 -10 -115 -23q0 -31 -10 -31q-20 0 -35 33 q-14 57 -47 168q-14 18 -18 31zM1520 283q20 -94 28 -119q72 14 119 22v123q-98 -16 -147 -26zM1718 193q79 10 97 20l24 -8q20 76 27 121q0 10 -8 10l-140 -19v-124z" />
<glyph unicode="&#xb5;" d="M51 -258q0 -10 23 -10q8 0 28 4q41 6 117 74q45 39 121 129t115 163l123 -84q18 -12 38 -12q14 0 23 2q47 8 47 51q0 51 -59 111q-61 49 -97 59q53 104 109 193q29 37 25 53q-8 53 -86 111q-20 10 -37 10q-25 0 -49 -12q-14 -10 -11 -21q4 -16 33 -55q-39 -123 -98 -236 q-123 25 -180 25q-80 0 -76 -39q4 -14 18 -16q111 -31 187 -82q-68 -109 -218 -289q1 -2 -34 -39q-33 -37 -41 -49q-20 -20 -21 -41zM827 1331q0 31 39 31q61 0 133 -84q68 -72 68 -174q0 -43 -23 -246q109 137 207 316l11 -5q-62 -258 -191 -555q-6 -96 -28.5 -129.5 t-71.5 -33.5q-41 0 -84 65q-55 90 -56 182q0 92 15 191q25 176 24 319q-43 96 -43 123zM1059 -117q0 23 35 51q119 113 221 234q172 227 217 518q18 170 18 391q0 125 -12 207q-92 94 -92 127q0 20 20 33q41 27 121 26q37 0 90.5 -47t92 -109.5t38.5 -105.5q0 -33 -22 -123 q-23 -709 -227 -919q-135 -152 -281 -232q-154 -74 -197 -73q-23 0 -22 22z" />
<glyph unicode="&#xb6;" d="M317 346l2 6q51 0 70 -28q43 8 156 26v105q-4 35 -10 43q-16 23 -17 41l6 6q49 0 80 -53l-6 -37v-97l113 21l39 14q78 -29 77 -57q-16 -12 -22 -21l-55 -114q6 -8 6 -17q0 -8 -25 -8l-55 6q-53 0 -82 -4l-4 -178q-4 -74 -10 -115q-2 -25 -15 -24q-8 0 -16 26 q-4 61 -4 113v170q-86 -12 -115 -25q0 -29 -10 -28q-18 0 -37 33q-25 102 -45 167q-6 8 -21 29zM397 295q18 -86 27 -119q74 14 121 23v123q-95 -15 -148 -27zM594 205q84 12 98 20l25 -8q14 57 24 121q0 8 -6 8q-47 -4 -137 -16zM1004 1348q0 31 38 30q61 0 134 -84 q68 -72 67 -174q0 -43 -22 -246q109 137 206 316l11 -4q-62 -258 -191 -555q-6 -96 -28.5 -130t-71.5 -34q-41 0 -84 65q-55 90 -55 183q0 92 14 190q25 176 25 320q-43 96 -43 123zM1235 -100q0 23 35 51q119 114 221 233q172 227 217 518q18 170 18 392q0 125 -12 206 q-92 96 -92 127q0 20 20 33q41 27 121 27q37 0 90.5 -47t92.5 -109.5t39 -105.5q0 -33 -23 -123q-23 -709 -227 -920q-135 -152 -281 -231q-154 -74 -197 -74q-23 0 -22 23z" />
<glyph unicode="&#xb7;" d="M410 868q0 49 41 50q23 0 98 -29q434 80 850 121q72 41 104 41q91 0 189 -113q27 -27 26 -82q0 -53 -90 -127q-317 -498 -590 -641q-285 -143 -407 -143q-39 0 -39 30q0 31 57 58q106 57 238 151q291 240 512 666q-236 -29 -406 -70q-270 -88 -315 -88q-82 0 -215 92 q-53 37 -53 84zM575 1309q0 43 37 43q16 0 66 -17q315 29 514 80q80 29 102 29q74 0 125 -25q80 -45 80 -90q0 -63 -65 -80q-68 -25 -213 -53q-301 -119 -617 -170l-8 21q115 38 244 108q-113 29 -189 74t-76 80z" />
<glyph unicode="&#xb8;" d="M391 1174q0 39 37 38q31 0 76 -24q614 131 1048 151q53 25 74 25q59 0 141 -98q68 -74 68 -148q0 -104 -133 -104q-238 -160 -475 -246q-47 -528 -436 -758q-143 -82 -177 -82q-31 0 -30 33q0 25 30 49q362 326 381 842q-76 63 -75 92q0 23 26.5 48.5t57.5 25.5 q43 0 103 -39t85 -84q170 115 295 283q-309 0 -748 -177q-70 -20 -118 -20q-55 0 -144 72q-86 78 -86 121z" />
<glyph unicode="&#xb9;" d="M152 143q0 35 151 127q350 276 795 1065q-59 70 -60 95q0 25 35 45t72 20q76 0 115 -27q131 -113 131 -192q0 -31 -70 -119q-82 -117 -227 -291q-43 -51 -50 -61l-77 -96q216 -160 419 -285q266 -170 525 -287q59 -27 133 -63q43 -23 53 -45q-10 -29 -231 -29 q-57 0 -132 8t-102 21q-66 43 -282 192q-360 256 -498 311q-109 -133 -214.5 -217t-236.5 -141q-166 -78 -217 -78q-33 0 -32 47z" />
<glyph unicode="&#xba;" d="M815 104q0 25 98 89q229 197 519 745q-39 45 -39 66q0 18 22.5 32.5t46.5 14.5q49 0 76 -19q86 -80 86 -135q0 -20 -47 -84q-31 -51 -147 -203q-47 -57 -82 -110q141 -111 272 -199q178 -121 342 -201q72 -35 88 -43q23 -12 35 -32q-6 -20 -152 -21q-117 0 -151 19 q-43 29 -185 137q-240 180 -325 217q-131 -176 -295 -252q-106 -53 -141 -53q-20 0 -21 32z" />
<glyph unicode="&#xbb;" d="M31 698q10 -12 49 -12q41 0 129 51q51 29 140 103.5t145 140.5l104 -102q23 -25 59 -25q55 0 56 53q0 51 -39 109q-41 51 -82 78q76 96 141 168q35 35 35 49q0 51 -66 123q-18 18 -43 18q-29 0 -41 -4q-14 -6 -14 -16q0 -18 21 -62q-66 -123 -138 -213q-154 59 -200 60 q-55 0 -56 -27q0 -14 15 -21q106 -53 168 -114q-82 -96 -264 -244l-41 -31q-41 -31 -52 -41q-8 -8 -18 -22.5t-8 -18.5zM152 143q0 35 151 127q350 276 795 1065q-59 70 -60 95q0 25 35 45t72 20q76 0 115 -27q131 -113 131 -192q0 -31 -70 -119q-82 -117 -227 -291 q-43 -51 -50 -61l-77 -96q216 -160 419 -285q266 -170 525 -287q59 -27 133 -63q43 -23 53 -45q-10 -29 -231 -29q-57 0 -132 8t-102 21q-66 43 -282 192q-360 256 -498 311q-109 -133 -214.5 -217t-236.5 -141q-166 -78 -217 -78q-33 0 -32 47z" />
<glyph unicode="&#xbd;" d="M360 696q0 23 48 23q23 0 41 -19q27 -27 61 -53q215 68 466 96.5t439 28.5q80 23 123 23q57 0 104.5 -23.5t120.5 -89.5q37 -43 37 -80q0 -39 -86 -82q-86 -100 -153.5 -159.5t-159.5 -120.5q68 -27 108 -68q20 -20 21 -47q0 -29 -43 -51q-31 -10 -72 -11q-27 0 -92 5 l-221 6q-133 -10 -156 -11q-61 0 -61 52q0 33 13 54t53 42.5t122 48.5q129 53 211 135q76 84 201 256q-45 10 -101 11q-94 0 -299 -25q-217 -41 -266 -41t-129 22q-59 0 -127 -6q53 -35 79 -64.5t39 -68.5t32 -125q2 -14 10 -47q23 -92 55 -164q20 -43 21 -71q0 -59 -86 -60 q-96 0 -148.5 108.5t-72.5 229.5q-37 211 -70 242q-61 55 -62 104zM461 958q0 29 31 29q33 0 69 -16q227 14 424 33q117 16 176 65q172 166 287 408q-223 -10 -600 -82q-72 -14 -129 -15q-43 0 -102.5 20.5t-103.5 49.5t-44 51q0 29 37 29q27 0 78 -19q424 66 884 91 q61 18 107 18q47 0 131 -70q47 -47 47 -80q0 -43 -80 -102q-125 -205 -274 -326q70 -18 108 -51q20 -18 21 -61q0 -53 -115 -53q-152 4 -196 4q-117 0 -343 -29q-147 -29 -200 -29q-74 0 -166 74q-43 35 -47 61z" />
<glyph unicode="&#xbe;" d="M139 700q0 20 47 21q23 0 41 -19q27 -27 62 -53q215 68 468 97.5t437 29.5q74 20 123 21q57 0 105 -22.5t120 -88.5q37 -45 37 -80q0 -41 -86 -84q-88 -102 -155.5 -160.5t-157.5 -117.5q70 -31 108 -70q20 -20 21 -47q0 -29 -43 -51q-31 -10 -72 -10q-27 0 -92 4 q-166 8 -221 8q-133 -10 -156 -10q-61 0 -61 51q0 31 13 52.5t54 44t121 48.5q86 35 143.5 76t113.5 108.5t155 206.5q-45 10 -101 11q-94 0 -299 -25q-217 -41 -266 -41q-55 0 -129 21q-59 0 -127 -7q53 -35 78.5 -65.5t39 -69.5t32.5 -125l10 -45q23 -94 55 -162 q20 -47 21 -73q0 -59 -86 -60q-96 0 -148.5 108.5t-73.5 231.5q-37 211 -69 242q-61 53 -62 104zM240 961q0 31 30 30q35 0 70 -18l123 10q139 10 301 25q117 16 176 63q172 166 287 408q-223 -10 -600 -82q-72 -14 -129 -15q-43 0 -102.5 20.5t-103.5 49.5t-44 51 q0 31 37 31q27 0 77 -18q393 61 885 90q66 16 107 16q47 0 131 -70q47 -47 47 -79q0 -45 -80 -103q-125 -205 -274 -326q70 -18 108 -51q20 -14 21 -61q0 -53 -115 -53q-152 4 -197 4q-117 0 -342 -29q-147 -29 -200 -29q-76 0 -166 76q-43 33 -47 60zM1563 1393 q0 43 104 43q37 0 82 -27q29 139 139 139q66 1 117 -26q39 -33 39 -99q0 -51 -53 -51q-55 0 -146 72q-16 -4 -16 -21q0 -47 29 -86q23 -39 22 -69q0 -55 -65 -56q-59 0 -107.5 33t-105.5 105q-39 20 -39 43z" />
<glyph unicode="&#xbf;" d="M469 840q0 12 25 26q254 143 393 385q-111 -25 -160 -24q-29 0 -65.5 17.5t-65.5 41t-29 35.5q0 16 27 16q23 0 57 -12q104 18 291 39q47 104 68 182q-29 23 -29 35q0 14 16 25q18 12 54 12q27 0 65.5 -17.5t68 -43t29.5 -50.5q0 -18 -69 -112l254 22q41 12 59 13 q55 0 127 -60q35 -35 35 -61q0 -29 -51 -68q-68 -158 -109 -221q-162 -227 -342 -227q-90 0 -90 84q-55 70 -84 163l6 2q99 -63 193 -100q61 25 160 166q88 147 102 223q-172 -12 -328 -41q-78 -139 -154.5 -225t-158.5 -135t-195 -90q-59 -16 -77 -17q-23 0 -23 17z M506 453q0 27 33 26q18 0 79 -16q365 43 691 65q55 20 86 21q69 -1 151 -60q23 -16 23 -43t-74 -67q-123 -127 -254 -191q-111 -55 -229 -96q-229 -76 -332 -76q-31 0 -31 17q0 16 45 30q100 35 195 80l76 41l79 43q90 51 140 92q80 66 125 123q-186 -16 -330 -36 q-225 -47 -256 -48q-66 0 -174 50q-43 23 -43 45zM600 641q0 -18 63.5 -43t149.5 -39q16 -2 53 -2q102 0 258 25q123 14 174 28q53 10 54 43q0 23 -66 47q-43 12 -100 13q-27 0 -84 -15q-162 -27 -418 -43q-35 8 -53 9q-31 0 -31 -23z" />
<glyph unicode="&#xce;" d="M657 934q0 -14 2 -23q4 -25 23 -63q51 -109 244 -236q145 -84 260 -84q70 0 123 27q117 55 116 119q0 63 -100 108q-29 21 -90 23q-109 8 -176.5 17t-132.5 34q-129 70 -174 102q-27 20 -54 21q-41 0 -41 -45z" />
<glyph unicode="&#xcf;" d="M545 612q0 47 53 168q63 150 156 344q90 186 149 330q4 84 39 111q16 12 33 12q29 0 50.5 -24.5t21.5 -57.5q0 -25 -13 -47l-106 -203q-129 -244 -193 -375q-88 -186 -100 -268q2 -34 27 -100q37 -98 151 -328q135 -270 213 -414q12 -25 12 -47q0 -33 -19.5 -57.5 t-47.5 -24.5q-72 0 -76 125l-102 240q-6 10 -41 92l-37 84q-55 127 -113 264l-16 39q-41 98 -41 137z" />
<glyph unicode="&#xd0;" d="M571 621q0 61 58 235q47 147 168 481q109 299 159 461q4 129 50 162q18 14 32 14q23 0 47 -30q29 -39 29 -80q0 -33 -16 -72l-68 -172l-45 -113q-135 -328 -209 -526q-96 -258 -108 -375q1 -53 28 -141q41 -143 164 -459q135 -346 230 -577q14 -31 14 -68 q0 -49 -26.5 -84t-59.5 -27q-66 12 -70 170l-153 467q-96 279 -162 488q-37 113 -49.5 159t-12.5 87z" />
<glyph unicode="&#xd1;" d="M260 803q0 -63 41 -111q16 -18 49 -18t68 14q53 18 170 92l76 45l104 64q39 20 84 53l63 41q20 10 31 8q16 -4 60 -39q129 -104 307 -194q109 -55 274.5 -94t347.5 -48q29 6 29 50q0 18 -2 30q-18 66 -55 74q-306 78 -496 141q-197 66 -252 93q-53 25 -102 67 q-66 55 -103 55q-25 0 -45 -10l-137 -55q-365 -154 -465 -207l-16 -8q-16 -8 -23 -15q-8 -8 -8 -28z" />
<glyph unicode="&#xd2;" d="M96 850q0 -12 6 -35q6 -45 23 -80q8 -20 25.5 -37.5t39.5 -17.5q37 0 105 51q90 70 162 109q47 29 84 55l63 41q14 8 23 8q6 0 15 -4t17 -6q82 -35 103 -43q111 -47 180 -62q109 -20 143 -20q20 0 29 2l88 10q57 6 101 27l106 47q82 33 262 152q14 8 27 30q6 12 6 23 q0 20 -29 14q-6 0 -35 -8q-147 -64 -293.5 -96.5t-252.5 -32.5q-96 0 -191 16q-135 27 -205 70q-31 14 -61 14q-23 0 -39 -8l-90 -37q-221 -88 -324 -145l-24 2h-27q-33 -8 -35 -17z" />
<glyph unicode="&#xd3;" horiz-adv-x="2048" d="M821 2707q-4 11 2 17q10 12 39 12q51 0 112.5 -27.5t59.5 -60.5q-37 -743 -51 -1798t-51 -1829q0 -10 -17 -10q-18 0 -38.5 11t-20.5 24q-14 475 -14 1011q0 176 4 525q12 760 12 1394q0 637 -37 731z" />
<glyph unicode="&#xd4;" horiz-adv-x="2048" d="M657 -952q0 8 5 24q66 190 114 762q82 940 82 2069v217q-6 504 -37 587q-4 11 2 17q10 12 39 12q51 0 112.5 -27.5t59.5 -60.5q-37 -758 -39 -1393v-170q0 -662 34 -1204.5t99 -845.5q10 -41 -84 -65q-74 -18 -149 -23h-12q-94 0 -160 28t-66 73z" />
<glyph unicode="&#xd5;" horiz-adv-x="2048" d="M580 446q0 461 28 500q23 31 60 31q39 0 84 -35q43 -33 75 -33q35 0 52 37q35 74 34 676q0 604 -30 680q-4 10 2 16q10 12 39 13q51 0 112.5 -28t59.5 -60q-8 -184 -27 -459q-39 -580 -39 -854q0 -86 2 -125q-33 -51 -74 -62q-20 -4 -28 -4q-41 0 -117 43q-20 10 -35 11 q-41 0 -47 -74q-14 -414 -14 -582l4 -307l4 -444q0 -23 -31 -31q-10 -4 -32 -4q-61 0 -62 37q-20 643 -20 1058z" />
<glyph unicode="&#xdb;" d="M137 739q0 -31 39 -37q250 25 426 27q53 2 141 2q129 0 322 -14l45 -4l74 -6q25 0 45 16q12 10 12 22q0 25 -49 33l-231 25q-63 6 -197 6q-293 0 -590 -31q-37 -8 -37 -39z" />
<glyph unicode="&#xe1;" d="M666 659q0 100 49 188.5t141 145.5q53 33 113 45h18q6 0 10 4l-2 21q-4 66 -4 104q0 8 -1 43t-1 121q0 49 4 123q0 55 62 57q70 0 71 -61l4 -305q0 -195 3 -250l-5 -14q-2 -10 -18 -17q-16 -4 -35 -4h-22h-25q-84 0 -126 -55t-42 -141q0 -35 2 -50q0 -23 11.5 -56.5 t29.5 -51.5q47 -51 150 -51q133 2 271 4t282 4l147 4q20 0 30.5 -1t16.5 -1q25 -6 29 -37v-4l2 -109v-6v-4q0 -29 -35 -33q-37 -6 -260 -6q-90 2 -256 2q-158 0 -231 -2q-121 0 -185 33q-59 31 -90 64.5t-67 109.5q-41 94 -41 186z" />
<glyph unicode="&#xe2;" d="M666 659q0 100 49 188.5t141 145.5q53 33 113 45h18q6 0 10 4l-2 21q-4 66 -4 104q0 8 -1 43t-1 121q0 49 4 123q0 55 62 57q70 0 71 -61l4 -305q0 -195 3 -250q0 -43 -29 -43l-35 4l-41 4q-84 0 -126 -55t-42 -141q0 -35 2 -50q0 -23 11.5 -55.5t29.5 -50.5 q49 -53 150 -53h30q37 0 48.5 -3t14.5 -17.5t3 -59.5q-2 -8 -2 -19v-16v-12q0 -12 2 -19q0 -35 -10 -39q-14 -6 -80 -4h-10q-127 4 -185 33q-59 31 -90 64.5t-67 109.5q-41 94 -41 186z" />
<glyph unicode="&#xe3;" d="M901 18q0 18 1 24.5t1 8.5v90q-2 35 -2 97q0 27 4 88q2 55 31 71q23 10 55 11h6q52 0 95 16q66 31 86 90q12 37 12 102q0 86 -42 141.5t-126 55.5l-41 -4l-35 -4q-29 0 -28 43q2 33 2 125l2 125q0 211 2 305q4 33 20 47q18 14 49 14q63 0 64 -57q4 -74 4 -123 q0 -86 -1 -121t-1 -43q0 -39 -4 -104q-2 -18 0 -21q0 -4 8 -4q12 0 18 -2q53 -8 113 -45q92 -55 141 -142t49 -190q0 -92 -41 -186q-37 -76 -67.5 -109.5t-89.5 -64.5q10 6 -47 -23l-41 -20q-10 -6 -11 -16q-12 -451 -30 -476q-12 -16 -27 -18q-6 -2 -14 -2q-4 -4 -15 0h-16 h-18h-13q-2 0 -22 4q-8 2 -12.5 7t-5.5 11.5t-3 10.5q-8 16 -8 84v120z" />
<glyph unicode="&#xe4;" d="M666 659q0 -92 41 -186q37 -76 67.5 -109.5t89.5 -64.5q2 0 49 -23l41 -20q8 -6 9 -16q12 -451 30 -476q6 -10 13 -12q10 -8 28 -8h17h14h20h13l20 4q8 2 12.5 7t6.5 11.5t4 12.5q6 16 6 82l2 121q0 111 -2 116q0 53 2 90v97q0 27 -4 88q-2 55 -31 71q-23 10 -55 11h-6 q-55 4 -92 18q-68 27 -89 88q-12 37 -12 103q0 86 42 141t126 55l41 -4l35 -4q29 0 29 43q-2 55 -3 250l-4 305q-4 33 -20 47q-18 14 -49 14q-63 0 -64 -57q-4 -74 -4 -123q0 -86 1 -120.5t1 -43.5q0 -39 4 -104l2 -21q-4 -4 -10 -4h-18q-59 -12 -113 -45q-92 -57 -141 -145 t-49 -189z" />
<glyph unicode="&#xea;" d="M1077 463q0 -33 28 -61.5t69 -47.5q35 -18 92 -20q215 -20 307 -60q133 -74 172 -108q31 -20 55 -21q41 0 41 48q0 12 -2 20q-2 20 -20 63q-51 113 -242 242q-150 90 -264 90q-61 0 -117 -24q-119 -55 -119 -121z" />
<glyph unicode="&#xeb;" d="M946 1575q0 16 15 16q6 0 57 -47q127 -127 252 -354q70 -127 116 -298t48 -335q-4 -178 -50.5 -343t-113.5 -273q-59 -96 -129 -174t-121 -115q-45 -33 -55 -33q-14 0 -15 19q0 16 23 38l35 35q57 57 118 144q68 94 131 270q59 174 70 434q-4 168 -49 342 q-70 252 -229 520q-49 80 -80 113q-23 23 -23 41z" />
<glyph unicode="&#xec;" d="M729 1405q0 47 105 65q33 4 51 5q115 0 284 -70q238 -109 267 -279l6 -43v-20q0 -115 -86 -115q-47 0 -99 31q-32 16 -67 63q-133 166 -221 224q-121 61 -185 82q-55 18 -55 57z" />
<glyph unicode="&#xed;" d="M670 932q0 49 104 65q33 4 51 4q115 0 285 -69q240 -109 266 -279l6 -43v-20q0 -115 -84 -115q-45 0 -100 33q-31 12 -68 61q-133 166 -221 224q-121 61 -184 81q-23 8 -39 24.5t-16 33.5zM729 1405q0 47 105 65q33 4 51 5q115 0 284 -70q238 -109 267 -279l6 -43v-20 q0 -115 -86 -115q-47 0 -99 31q-32 16 -67 63q-133 166 -221 224q-121 61 -185 82q-55 18 -55 57z" />
<glyph unicode="&#xee;" d="M670 932q0 49 104 65q33 4 51 4q115 0 285 -69q240 -109 266 -279l6 -43v-20q0 -115 -84 -115q-45 0 -100 33q-31 12 -68 61q-133 166 -221 224q-121 61 -184 81q-23 8 -39 24.5t-16 33.5zM682 426q0 45 109 66q29 4 45 4q109 0 288 -70q238 -109 267 -279l6 -43v-22 q0 -113 -86 -113q-49 0 -97 31q-30 14 -69 63q-133 166 -221 224q-121 61 -185 82q-57 18 -57 57zM729 1405q0 47 105 65q33 4 51 5q115 0 284 -70q238 -109 267 -279l6 -43v-20q0 -115 -86 -115q-47 0 -99 31q-32 16 -67 63q-133 166 -221 224q-121 61 -185 82 q-55 18 -55 57z" />
<glyph unicode="&#xef;" d="M653 72q0 49 107 65q33 4 51 4q113 0 283 -69q242 -109 268 -279l6 -43v-20q0 -113 -86 -113q-51 0 -98 31q-31 14 -70 63q-131 164 -221 221q-135 70 -184 82q-23 8 -39.5 24.5t-16.5 33.5zM655 1055q0 45 107 65q29 4 45 4q109 0 289 -69q238 -109 266 -279l6 -43v-22 q0 -113 -86 -113q-49 0 -96 31q-31 14 -70 63q-125 156 -221 223q-121 61 -184 82q-55 18 -56 58zM672 549q0 47 104 63q33 4 51 4q113 0 285 -67q238 -109 266 -281l6 -43v-20q0 -113 -86 -113q-51 0 -98 31q-32 16 -67 63q-127 156 -224 224q-119 61 -182 82 q-55 18 -55 57zM715 1528q0 47 106 63q33 4 51 4q115 0 283 -67q238 -109 266 -281l6 -43v-20q0 -113 -86 -113q-49 0 -96 31q-30 14 -69 63q-125 156 -222 224q-121 61 -184 81q-55 18 -55 58z" />
<glyph unicode="&#xf0;" d="M1065 920q0 -70 48 -122.5t122 -52.5q68 0 117 49.5t49 125.5q0 55 -32 100t-85 63q-24 9 -53 9q-53 0 -96 -33t-62 -88q-8 -33 -8 -51zM1077 463q0 -33 28 -61.5t69 -47.5q35 -18 92 -20q215 -20 307 -60q133 -74 172 -108q31 -20 55 -21q41 0 41 48q0 12 -2 20 q-2 20 -20 63q-51 113 -242 242q-150 90 -264 90q-61 0 -117 -24q-119 -55 -119 -121z" />
<glyph unicode="&#xf1;" d="M1266 414q0 61 32.5 113.5t94.5 84.5q51 29 110 29q61 0 114.5 -33t86.5 -94q29 -51 29 -111q0 -63 -34 -116.5t-93 -83.5q-51 -29 -113 -29q-61 0 -113.5 33t-85.5 94q-29 57 -28 113zM1395 403q0 -33 19.5 -59.5t51.5 -36.5q10 -4 33 -4q43 0 74 27.5t31 77.5 q0 41 -31 72.5t-76 31.5q-41 0 -71.5 -30.5t-30.5 -78.5z" />
<glyph unicode="&#xf2;" d="M1681 430q0 -55 32 -101t85 -65q33 -8 49 -8q70 0 120 49t50 127q0 55 -31.5 101.5t-84.5 60.5q-25 8 -54 8q-53 0 -96 -32.5t-61 -88.5q-8 -33 -9 -51z" />
<glyph unicode="&#xf6;" d="M115 778l8 17l555 108l289 55v549q0 27 -58 90q-33 39 -32 66l16 16q270 -27 270 -114q0 -12 -16 -115l-8 -467q206 35 458 90l82 57q254 -39 254 -122q0 -37 -90 -50q-330 0 -704 -65l-17 -852q-18 -164 -65 -164q-55 0 -74 164q-14 453 -16 819q-365 -59 -697 -164 q-104 37 -155 82z" />
<glyph unicode="&#xf7;" d="M123 737l16 17q721 114 1385 139q139 74 164 74q295 -98 294 -181q0 -57 -73 -57q-356 25 -525 25q-479 0 -1089 -123q-88 25 -172 106z" />
<glyph unicode="&#xf8;" d="M156 270l8 17q753 149 1376 188q115 66 139 66q319 -94 320 -197q0 -39 -74 -49q-215 33 -442 33q-571 0 -1155 -148q-98 23 -172 90zM582 1188l8 16q358 64 573 115q70 66 82 65q238 -55 238 -122q0 -37 -58 -50q-356 -14 -696 -90q-80 25 -147 66z" />
<glyph unicode="&#xf9;" d="M156 57l16 17l90 8q727 129 1270 188q68 20 115 74q336 -66 335 -156q0 -57 -139 -57q-150 8 -319 8q-426 0 -1205 -172q-98 39 -163 90zM557 1262l16 16q316 51 615 123q39 23 74 57q262 -25 262 -115q0 -37 -90 -40q-291 -10 -762 -115q-90 47 -115 74zM598 713l16 16 q307 53 590 123q43 14 66 49q229 -39 229 -115q0 -29 -82 -41q-299 -4 -680 -98q-115 37 -139 66z" />
<glyph unicode="&#xfa;" d="M131 1155l8 16q63 -4 115 -24h98l959 135q119 18 311 45q49 12 98 41q246 -113 246 -172q-45 -51 -65 -98q-137 -616 -205 -787q-61 -156 -131 -155q-25 0 -41 41q-20 51 -66 114q-481 0 -901 -73l-65 8q0 -58 -33 -58q-66 0 -131 115q-61 451 -131 729q-16 49 -33 66 q-27 27 -33 57zM336 1065l147 -729l66 -8q272 41 614 82q55 12 90 49q135 -12 222 -74q16 -25 41 -25q20 0 40 74q92 373 164 754q-12 35 -49 41q-221 0 -549 -49q35 -37 49 -74q-33 -68 -32 -172q0 -90 20.5 -123t85.5 -33q76 0 139 49q164 0 164 -82q0 -29 -90 -47 t-180 -18q-102 0 -174 27.5t-72 119.5q0 125 -8 271q-14 35 -49 57q-57 -10 -205 -33q98 -70 98 -131q-109 -305 -352 -467l-8 17q188 256 197 450q-8 70 -33 115q-190 -29 -336 -41z" />
<glyph unicode="&#xfb;" d="M98 66l8 16q266 41 459 65q92 211 213 566q-129 -20 -229 -49q-74 35 -115 65l8 16q209 27 369 58q70 201 107 393q-14 55 -50 98q-90 -14 -155 -32q-68 27 -115 57l8 16q412 78 615 115q41 27 65 49q246 -33 246 -106q0 -37 -74 -41q-281 -14 -475 -33q88 -61 123 -164 l-139 -328q188 41 327 74q35 12 74 41q197 -106 197 -147q0 -16 -33 -41q-147 -354 -213 -533l336 25q57 27 90 57q295 -70 295 -156q0 -49 -66 -49q-397 16 -590 17q-553 0 -1146 -131q-74 27 -140 82zM688 164l483 49q113 367 156 549q0 41 -41 41q-162 -25 -352 -66z" />
<glyph unicode="&#xfc;" d="M180 893l8 16q737 117 1360 189q86 14 140 65q279 -55 278 -147q0 -37 -65 -41q-178 8 -369 8q-524 0 -1204 -156q-82 14 -148 66zM221 33q281 293 443 581q-33 57 -33 74l8 17q229 -27 229 -148q-37 -29 -49 -41q-285 -303 -590 -500zM844 1573l16 16q186 -2 270 -106 l-16 -66l-33 -270q-14 -82 -49 -82t-57 74q-33 160 -57 319q-10 25 -33 49q-41 47 -41 66zM1196 623l16 16q251 -91 435 -197q188 -242 188 -376q0 -74 -57 -74q-53 0 -254 270q-160 209 -328 361z" />
<glyph unicode="&#xfd;" d="M90 541l8 16q264 84 770 254q-10 475 -24 655q-4 35 -41 66q-31 27 -33 57l16 17q219 0 295 -123q0 -14 -41 -131q-20 -233 -24 -492q315 94 524 172q37 16 66 66q311 -16 311 -115q0 -55 -139 -65q-266 -12 -762 -164l-2 -95q-2 -31 -2 -88q0 -152 48 -230.5t193 -78.5 q158 0 271 49q246 -25 245 -106q0 -47 -114 -66q-115 -16 -238 -16q-268 0 -393 90q-147 109 -147 500q-467 -156 -615 -246q-109 25 -172 74z" />
<glyph unicode="&#xfe;" d="M147 156q317 383 426 811q0 25 -24 57q-25 35 -25 49l8 17q191 -17 230 -148q-31 -47 -57 -115q-174 -403 -549 -688zM754 1393l16 16q141 0 172 -25q80 -82 221 -286q393 -580 926 -860v-17q-270 0 -533 25q-133 219 -278 491q-270 477 -369 566l-49 16h-49 q-57 39 -57 74z" />
<glyph unicode="&#xff;" d="M57 74q489 334 639 934q-131 -53 -319 -140q-180 39 -180 99l8 16h90q207 47 418 131q41 180 41 352q0 45 -25 66q-41 37 -41 65l17 17q217 -2 245 -90l-16 -49q-10 -127 -41 -295q160 59 262 114q53 39 74 58q190 -51 221 -123l-57 -49q-262 -446 -263 -705 q0 -106 29 -164.5t88.5 -82t161.5 -23.5q184 0 344 24q72 12 98 58q27 51 74 254h17q35 -154 81 -254q66 -61 66 -99q0 -61 -152.5 -91.5t-322.5 -30.5q-242 0 -368 38.5t-174 125.5t-48 245q0 258 156 713l-9 16l-286 -114q-143 -733 -819 -1033z" />
<glyph unicode="&#x2000;" horiz-adv-x="1368" />
<glyph unicode="&#x2001;" horiz-adv-x="2736" />
<glyph unicode="&#x2002;" horiz-adv-x="1368" />
<glyph unicode="&#x2003;" horiz-adv-x="2736" />
<glyph unicode="&#x2004;" horiz-adv-x="912" />
<glyph unicode="&#x2005;" horiz-adv-x="684" />
<glyph unicode="&#x2006;" horiz-adv-x="456" />
<glyph unicode="&#x2007;" horiz-adv-x="456" />
<glyph unicode="&#x2008;" horiz-adv-x="342" />
<glyph unicode="&#x2009;" horiz-adv-x="547" />
<glyph unicode="&#x200a;" horiz-adv-x="152" />
<glyph unicode="&#x202f;" horiz-adv-x="547" />
<glyph unicode="&#x205f;" horiz-adv-x="684" />
<glyph unicode="&#x25fc;" horiz-adv-x="1546" d="M0 0v1546h1546v-1546h-1546z" />
</font>
</defs>
</svg>
